<?xml version="1.0" encoding="utf-8"?>
<svg version="1.1" xmlns="http://www.w3.org/2000/svg" xmlns:xlink="http://www.w3.org/1999/xlink">

  <svg id="active" viewBox="0 0 426 426">
    <path d="M213.333,0C95.518,0,0,95.514,0,213.333s95.518,213.333,213.333,213.333 c117.828,0,213.333-95.514,213.333-213.333S331.157,0,213.333,0z M174.199,322.918l-93.935-93.931l31.309-31.309l62.626,62.622 l140.894-140.898l31.309,31.309L174.199,322.918z"/>
  </svg>

  <svg id="area" viewBox="0 0 368 368">
    <path d="M360,0H56H8C3.584,0,0,3.584,0,8v48v304c0,4.416,3.584,8,8,8h48c4.416,0,8-3.584,8-8v-8h232c2.12,0,4.16-0.84,5.656-2.344 l48-48C351.16,300.16,352,298.12,352,296V64h8c4.416,0,8-3.584,8-8V8C368,3.584,364.416,0,360,0z M48,352H16V64h32V352z M48,48H16 V16h32V48z M336,292.688L292.688,336H288v-48h48V292.688z M336,272h-56c-4.416,0-8,3.584-8,8v56H64V192h40c4.416,0,8-3.584,8-8 c0-4.416-3.584-8-8-8H64V64h112v40c0,4.416,3.584,8,8,8s8-3.584,8-8V64h144V272z M352,48H64V16h288V48z"/>
    <path d="M184,144c-4.416,0-8,3.584-8,8v24h-24c-4.416,0-8,3.584-8,8s3.584,8,8,8h32c4.416,0,8-3.584,8-8v-32 C192,147.584,188.416,144,184,144z"/>
  </svg>

  <svg id="bath" viewBox="0 0 512 512">
    <path d="M485.4,272.067h-8.533v-179.2c0-42.667-34.133-76.8-76.8-76.8c-37.77,0-64.935,28.006-67.974,69.041 c-19.829,3.748-34.426,20.826-34.426,41.892c0,5.12,3.413,8.533,8.533,8.533h68.267c5.12,0,8.533-3.413,8.533-8.533 c0-20.833-14.274-37.769-33.767-41.767c2.55-27.116,18.836-52.1,50.834-52.1c33.28,0,59.733,26.453,59.733,59.733v179.2H202.975 c-3.86-19.681-20.878-34.133-41.841-34.133c-8.533-10.24-20.48-17.067-34.133-17.067c-16.213,0-30.72,9.387-37.547,23.04 c-6.827-3.413-14.507-5.973-22.187-5.973c-20.963,0-37.981,14.452-41.841,34.133H24.6c-14.507,0-25.6,11.093-25.6,25.6 c0,14.507,11.093,25.6,25.6,25.6h10.255l23.025,91.307c6.827,26.453,30.72,45.227,58.027,45.227h6.827l-11.093,22.187 c-2.56,4.267-0.853,9.387,3.413,11.093c0.853,0.853,2.56,0.853,3.413,0.853c3.413,0,5.973-1.707,7.68-4.267L141.08,459.8h236.8 l14.507,29.013c1.707,3.413,4.267,5.12,7.68,5.12c1.707,0,2.56,0,3.413-1.707c3.413-1.707,5.12-6.827,3.413-11.093 l-10.689-21.379c26.419-0.938,49.266-19.39,55.916-44.328l23.24-92.16h10.04c14.507,0,25.6-11.093,25.6-25.6 C511,283.16,499.907,272.067,485.4,272.067z M365.08,118.467h-48.64c3.413-10.24,13.653-17.067,24.747-17.067 S361.667,108.227,365.08,118.467z M67.267,255c7.68,0,14.507,3.413,20.48,9.387c1.707,2.56,5.12,3.413,8.533,2.56 s5.12-3.413,5.973-6.827c2.56-12.8,12.8-22.187,25.6-22.187c9.387,0,17.92,4.267,22.187,12.8c1.707,3.413,5.973,5.12,9.387,4.267 c0.853,0,1.707,0,2.56,0c11.093,0,20.48,6.827,23.893,17.067H43.373C46.787,261.827,56.173,255,67.267,255z M436.76,410.307 c-5.12,18.773-22.187,32.427-41.813,32.427H116.76c-19.627,0-36.693-13.653-41.813-32.427l-22.187-87.04h404.48L436.76,410.307z M485.4,306.2h-17.067H41.667H24.6c-5.12,0-8.533-3.413-8.533-8.533s3.413-8.533,8.533-8.533h8.533h162.133H485.4 c5.12,0,8.533,3.413,8.533,8.533S490.52,306.2,485.4,306.2z"/>
    <path d="M306.2,173.933c5.12,0,8.533-3.413,8.533-8.533v-4.267c0-5.12-3.413-8.533-8.533-8.533s-8.533,3.413-8.533,8.533v4.267 C297.667,170.52,301.08,173.933,306.2,173.933z"/>
    <path d="M306.2,213.187c5.12,0,8.533-4.267,8.533-8.533v-9.387c0-5.12-3.413-8.533-8.533-8.533s-8.533,3.413-8.533,8.533v9.387 C297.667,209.773,301.08,213.187,306.2,213.187z"/>
    <path d="M306.2,246.467c5.12,0,8.533-3.413,8.533-8.533v-4.267c0-5.12-3.413-8.533-8.533-8.533s-8.533,3.413-8.533,8.533v4.267 C297.667,243.053,301.08,246.467,306.2,246.467z"/>
    <path d="M340.333,173.933c5.12,0,8.533-3.413,8.533-8.533v-4.267c0-5.12-3.413-8.533-8.533-8.533 c-5.12,0-8.533,3.413-8.533,8.533v4.267C331.8,170.52,335.213,173.933,340.333,173.933z"/>
    <path d="M331.8,204.653c0,5.12,3.413,8.533,8.533,8.533c5.12,0,8.533-4.267,8.533-8.533v-9.387c0-5.12-3.413-8.533-8.533-8.533 c-5.12,0-8.533,3.413-8.533,8.533V204.653z"/>
    <path d="M331.8,237.933c0,5.12,3.413,8.533,8.533,8.533c5.12,0,8.533-3.413,8.533-8.533v-4.267c0-5.12-3.413-8.533-8.533-8.533 c-5.12,0-8.533,3.413-8.533,8.533V237.933z"/>
    <path d="M374.467,173.933c5.12,0,8.533-3.413,8.533-8.533v-4.267c0-5.12-3.413-8.533-8.533-8.533s-8.533,3.413-8.533,8.533v4.267 C365.933,170.52,369.347,173.933,374.467,173.933z"/>
    <path d="M365.933,204.653c0,5.12,3.413,8.533,8.533,8.533S383,208.92,383,204.653v-9.387c0-5.12-3.413-8.533-8.533-8.533 s-8.533,3.413-8.533,8.533V204.653z"/>
    <path d="M365.933,237.933c0,5.12,3.413,8.533,8.533,8.533s8.533-3.413,8.533-8.533v-4.267c0-5.12-3.413-8.533-8.533-8.533 s-8.533,3.413-8.533,8.533V237.933z"/>
  </svg>

  <svg id="bed" viewBox="0 -200 480 480">
    <path d="m472 0h-32c-4.417969 0-8 3.582031-8 8v48.804688c-10.40625-9.164063-27.503906-16.804688-56-16.804688-53.023438 0-66.984375 26.347656-70.667969 40h-33.332031v-16c-.011719-8.832031-7.167969-15.988281-16-16h-32c-8.832031.011719-15.988281 7.167969-16 16h-168c-13.25.015625-23.984375 10.75-24 24v40h-8c-4.417969 0-8 3.582031-8 8v112c0 4.417969 3.582031 8 8 8h24c3.910156 0 7.25-2.824219 7.890625-6.683594l6.886719-41.316406h386.445312l6.886719 41.316406c.640625 3.859375 3.980469 6.683594 7.890625 6.683594h24c4.417969 0 8-3.582031 8-8v-240c0-4.417969-3.582031-8-8-8zm-96 56c37.492188 0 49.882812 14.511719 53.976562 24h-107.945312c4.109375-9.519531 16.515625-24 53.96875-24zm56 40v32h-160v-32zm-208-32h32v64h-32zm-192 24c.003906-4.417969 3.582031-7.996094 8-8h168v48h-176zm-16 56h416v48h-416zm9.226562 96h-9.226562v-32h14.554688zm438.773438 0h-9.226562l-6.773438-40.660156v-183.339844h16zm0 0"/>
  </svg>

  <svg id="car" viewBox="0 -100 512 512">
    <path d="M401.067,287.834c-23.526,0-42.667,19.14-42.667,42.667c0,23.526,19.14,42.667,42.667,42.667 c23.526,0,42.667-19.14,42.667-42.667C443.733,306.975,424.593,287.834,401.067,287.834z M401.067,356.101 c-14.114,0-25.6-11.486-25.6-25.6s11.486-25.6,25.6-25.6c14.114,0,25.6,11.486,25.6,25.6S415.181,356.101,401.067,356.101z"/>
    <path d="M110.933,287.834c-23.526,0-42.667,19.14-42.667,42.667c0,23.526,19.14,42.667,42.667,42.667 c23.526,0,42.667-19.14,42.667-42.667C153.6,306.975,134.46,287.834,110.933,287.834z M110.933,356.101 c-14.114,0-25.6-11.486-25.6-25.6s11.486-25.6,25.6-25.6s25.6,11.486,25.6,25.6S125.047,356.101,110.933,356.101z"/>
    <path d="M503.467,287.834v-51.2c0-3.678-2.347-6.938-5.837-8.098l-48.154-16.051c-18.133-30.711-43.059-59.938-98.142-69.589 c-0.102-0.017-0.205-0.034-0.307-0.051c-101.717-14.063-178.091,8.883-227.123,68.224C67.217,211.888,8.533,229.765,8.533,262.234 v25.6c-4.71,0-8.533,3.823-8.533,8.533v34.133c0,4.71,3.823,8.533,8.533,8.533h34.133c4.71,0,8.533-3.823,8.533-8.533 c0-32.939,26.795-59.733,59.733-59.733s59.733,26.795,59.733,59.733c0,4.71,3.823,8.533,8.533,8.533h153.6 c4.71,0,8.533-3.823,8.533-8.533c0-32.939,26.795-59.733,59.733-59.733c32.939,0,59.733,26.795,59.733,59.733 c0,4.71,3.823,8.533,8.533,8.533h34.133c4.71,0,8.533-3.823,8.533-8.533v-34.133C512,291.657,508.177,287.834,503.467,287.834z  M392.951,175.672c14.822,9.088,25.865,21.086,35.447,35.362h-35.78L392.951,175.672z M290.133,155.9 c18.253-0.247,37.666,0.973,58.411,3.84c10.274,1.809,19.302,4.378,27.426,7.569l-0.418,43.733h-85.419V155.9z M273.067,156.626 v54.417H146.961C178.594,178.411,220.305,160.38,273.067,156.626z M494.933,321.968h-17.536 c-4.258-38.349-36.864-68.267-76.331-68.267s-72.073,29.918-76.331,68.267H187.264c-4.258-38.349-36.864-68.267-76.331-68.267 s-72.073,29.918-76.331,68.267H17.067v-17.067c4.71,0,8.533-3.823,8.533-8.533v-25.6h8.533c4.71,0,8.533-3.823,8.533-8.533 c0-4.71-3.823-8.533-8.533-8.533h-4.42c11.546-12.535,46.865-25.6,98.287-25.6h314.342l44.058,14.686v10.914h-8.533 c-4.71,0-8.533,3.823-8.533,8.533c0,4.71,3.823,8.533,8.533,8.533h8.533v25.6c0,4.71,3.823,8.533,8.533,8.533V321.968z"/>
  </svg>

  <svg id="check" viewBox="0 0 474 474">
    <path d="M396.283,257.097c-1.14-0.575-2.282-0.862-3.433-0.862c-2.478,0-4.661,0.951-6.563,2.857l-18.274,18.271 c-1.708,1.715-2.566,3.806-2.566,6.283v72.513c0,12.565-4.463,23.314-13.415,32.264c-8.945,8.945-19.701,13.418-32.264,13.418 H82.226c-12.564,0-23.319-4.473-32.264-13.418c-8.947-8.949-13.418-19.698-13.418-32.264V118.622 c0-12.562,4.471-23.316,13.418-32.264c8.945-8.946,19.7-13.418,32.264-13.418H319.77c4.188,0,8.47,0.571,12.847,1.714 c1.143,0.378,1.999,0.571,2.563,0.571c2.478,0,4.668-0.949,6.57-2.852l13.99-13.99c2.282-2.281,3.142-5.043,2.566-8.276 c-0.571-3.046-2.286-5.236-5.141-6.567c-10.272-4.752-21.412-7.139-33.403-7.139H82.226c-22.65,0-42.018,8.042-58.102,24.126 C8.042,76.613,0,95.978,0,118.629v237.543c0,22.647,8.042,42.014,24.125,58.098c16.084,16.088,35.452,24.13,58.102,24.13h237.541 c22.647,0,42.017-8.042,58.101-24.13c16.085-16.084,24.134-35.45,24.134-58.098v-90.797 C402.001,261.381,400.088,258.623,396.283,257.097z"/>
    <path d="M467.95,93.216l-31.409-31.409c-4.568-4.567-9.996-6.851-16.279-6.851c-6.275,0-11.707,2.284-16.271,6.851 L219.265,246.532l-75.084-75.089c-4.569-4.57-9.995-6.851-16.274-6.851c-6.28,0-11.704,2.281-16.274,6.851l-31.405,31.405 c-4.568,4.568-6.854,9.994-6.854,16.277c0,6.28,2.286,11.704,6.854,16.274l122.767,122.767c4.569,4.571,9.995,6.851,16.274,6.851 c6.279,0,11.704-2.279,16.274-6.851l232.404-232.403c4.565-4.567,6.854-9.994,6.854-16.274S472.518,97.783,467.95,93.216z"/>
  </svg>

  <svg id="delete" viewBox="0 0 407 407">
    <path d="m89.199219 37c0-12.132812 9.46875-21 21.601562-21h88.800781c12.128907 0 21.597657 8.867188 21.597657 21v23h16v-23c0-20.953125-16.644531-37-37.597657-37h-88.800781c-20.953125 0-37.601562 16.046875-37.601562 37v23h16zm0 0"/><path d="m60.601562 407h189.199219c18.242188 0 32.398438-16.046875 32.398438-36v-247h-254v247c0 19.953125 14.15625 36 32.402343 36zm145.597657-244.800781c0-4.417969 3.582031-8 8-8s8 3.582031 8 8v189c0 4.417969-3.582031 8-8 8s-8-3.582031-8-8zm-59 0c0-4.417969 3.582031-8 8-8s8 3.582031 8 8v189c0 4.417969-3.582031 8-8 8s-8-3.582031-8-8zm-59 0c0-4.417969 3.582031-8 8-8s8 3.582031 8 8v189c0 4.417969-3.582031 8-8 8s-8-3.582031-8-8zm0 0"/><path d="m20 108h270.398438c11.046874 0 20-8.953125 20-20s-8.953126-20-20-20h-270.398438c-11.046875 0-20 8.953125-20 20s8.953125 20 20 20zm0 0"/>
  </svg>

  <svg id="edit" viewBox="0 0 381 381">
    <path d="m370.589844 230.964844c-5.523438 0-10 4.476562-10 10v88.792968c-.019532 16.558594-13.4375 29.980469-30 30h-280.589844c-16.5625-.019531-29.980469-13.441406-30-30v-260.589843c.019531-16.5625 13.4375-29.980469 30-30h88.789062c5.523438 0 10-4.476563 10-10 0-5.523438-4.476562-10-10-10h-88.789062c-27.601562.03125-49.96875 22.398437-50 50v260.589843c.03125 27.601563 22.398438 49.96875 50 50h280.589844c27.601562-.03125 49.96875-22.398437 50-50v-88.789062c0-5.523438-4.476563-10.003906-10-10.003906zm0 0"/><path d="m156.367188 178.34375 146.011718-146.015625 47.089844 47.089844-146.011719 146.015625zm0 0"/><path d="m132.542969 249.257812 52.039062-14.414062-37.625-37.625zm0 0"/><path d="m362.488281 7.578125c-9.769531-9.746094-25.585937-9.746094-35.355469 0l-10.605468 10.605469 47.089844 47.089844 10.605468-10.605469c9.75-9.769531 9.75-25.585938 0-35.355469zm0 0"/>
  </svg>

  <svg id="inactive" viewBox="0 0 496 496">
    <path d="M496.158,248.085c0-137.021-111.07-248.082-248.076-248.082C111.07,0.003,0,111.063,0,248.085 c0,137.002,111.07,248.07,248.082,248.07C385.088,496.155,496.158,385.087,496.158,248.085z"/>
    <path style="fill:#FFFFFF;" d="M277.042,248.082l72.528-84.196c7.91-9.182,6.876-23.041-2.31-30.951 c-9.172-7.904-23.032-6.876-30.947,2.306l-68.236,79.212l-68.229-79.212c-7.91-9.188-21.771-10.216-30.954-2.306 c-9.186,7.91-10.214,21.77-2.304,30.951l72.522,84.196l-72.522,84.192c-7.91,9.182-6.882,23.041,2.304,30.951 c4.143,3.569,9.241,5.318,14.316,5.318c6.161,0,12.294-2.586,16.638-7.624l68.229-79.212l68.236,79.212 c4.338,5.041,10.47,7.624,16.637,7.624c5.069,0,10.168-1.749,14.311-5.318c9.186-7.91,10.22-21.77,2.31-30.951L277.042,248.082z"/>
  </svg>

  <svg id="kitchen" viewBox="-96 0 512 512">
    <path d="m280 0h-240c-22.058594 0-40 17.941406-40 40v392c0 22.058594 17.941406 40 40 40h10v10c0 16.539062 13.460938 30 30 30h10c11.03125 0 20-8.96875 20-20v-20h100v20c0 11.03125 8.96875 20 20 20h10c16.539062 0 30-13.460938 30-30v-10h10c22.058594 0 40-17.941406 40-40v-392c0-22.058594-17.941406-40-40-40zm-190 492h-10c-5.511719 0-10-4.488281-10-10v-10h20l.011719 20s0 0-.011719 0zm160-10c0 5.511719-4.488281 10-10 10h-10v-20h20zm50-50c0 11.03125-8.96875 20-20 20h-240c-11.03125 0-20-8.96875-20-20v-240h280zm0-260h-280v-132c0-11.03125 8.96875-20 20-20h240c11.03125 0 20 8.96875 20 20zm0 0"/><path d="m130.179688 152h-70c-11.027344 0-20-8.972656-20-20v-10c0-16.542969 13.457031-30 30-30h50c16.542968 0 30 13.457031 30 30v10c0 11.027344-8.972657 20-20 20zm-60-40c-5.515626 0-10 4.484375-10 10v10h70.003906l-.003906-10c0-5.515625-4.484376-10-10-10zm0 0"/><path d="m120.179688 272h-50c-16.542969 0-30-13.457031-30-30v-10c0-11.027344 8.972656-20 20-20h70c11.027343 0 20 8.972656 20 20v10c0 16.542969-13.457032 30-30 30zm-60-40v10c0 5.515625 4.484374 10 10 10h50c5.515624 0 10-4.484375 10-10v-10zm0 0"/><path d="m270 432c-5.523438 0-10-4.476562-10-10v-80c0-5.523438 4.476562-10 10-10s10 4.476562 10 10v80c0 5.523438-4.476562 10-10 10zm0 0"/><path d="m270.019531 312c-5.523437 0-10.003906-4.476562-10.003906-10s4.472656-10 9.996094-10h.007812c5.523438 0 10 4.476562 10 10s-4.476562 10-10 10zm0 0"/>
  </svg>

  <svg id="left-arrow" viewBox="0 0 31 31">
    <path d="M10.273,5.009c0.444-0.444,1.143-0.444,1.587,0c0.429,0.429,0.429,1.143,0,1.571l-8.047,8.047h26.554 c0.619,0,1.127,0.492,1.127,1.111c0,0.619-0.508,1.127-1.127,1.127H3.813l8.047,8.032c0.429,0.444,0.429,1.159,0,1.587 c-0.444,0.444-1.143,0.444-1.587,0l-9.952-9.952c-0.429-0.429-0.429-1.143,0-1.571L10.273,5.009z"/>
  </svg>

  <svg id="location" viewBox="0 0 512 512">
    <path d="M256,0C156.748,0,76,80.748,76,180c0,33.534,9.289,66.26,26.869,94.652l142.885,230.257 c2.737,4.411,7.559,7.091,12.745,7.091c0.04,0,0.079,0,0.119,0c5.231-0.041,10.063-2.804,12.75-7.292L410.611,272.22 C427.221,244.428,436,212.539,436,180C436,80.748,355.252,0,256,0z M384.866,256.818L258.272,468.186l-129.905-209.34 C113.734,235.214,105.8,207.95,105.8,180c0-82.71,67.49-150.2,150.2-150.2S406.1,97.29,406.1,180 C406.1,207.121,398.689,233.688,384.866,256.818z"/>
    <path d="M256,90c-49.626,0-90,40.374-90,90c0,49.309,39.717,90,90,90c50.903,0,90-41.233,90-90C346,130.374,305.626,90,256,90z M256,240.2c-33.257,0-60.2-27.033-60.2-60.2c0-33.084,27.116-60.2,60.2-60.2s60.1,27.116,60.1,60.2 C316.1,212.683,289.784,240.2,256,240.2z"/>
  </svg>

  <svg id="money" viewBox="0 0 482 482">
    <path d="M478.28,284.402c-8.594-15.464-28.096-21.034-43.56-12.44l-43.68,18.8l-11.2-22.4c-1.673-3.326-2.55-6.996-2.56-10.72 v-88.48c-0.069-56.083-41.609-103.469-97.2-110.88l32-44.48c2.565-3.597,1.729-8.593-1.868-11.158 c-1.436-1.024-3.17-1.545-4.932-1.482h-128c-4.418,0.02-7.983,3.619-7.963,8.037c0.008,1.651,0.526,3.259,1.483,4.603l32,44.48 c-55.718,7.264-97.43,54.69-97.52,110.88v90.16c-4.436,3.596-8.484,7.644-12.08,12.08l-35.36,44.24l-9.92-14.88 c-1.183-1.881-3.096-3.186-5.28-3.6c-2.173-0.31-4.381,0.235-6.16,1.52l-32,24c-2.037,1.528-3.225,3.934-3.2,6.48v144 c0,4.418,3.582,8,8,8h104c2.126,0.012,4.17-0.823,5.68-2.32l24-24c2.676-2.704,3.078-6.919,0.96-10.08l-4-6l185.04-42.56 c10.024-2.319,19.724-5.866,28.88-10.56l112-57.68C481.304,319.368,486.874,299.866,478.28,284.402z M192.8,17.162h96.96 l-28.56,40h-40L192.8,17.162z M121.28,169.162c0-53.019,42.981-96,96-96h48c53.019,0,96,42.981,96,96v88.48 c0.013,6.195,1.464,12.302,4.24,17.84l10.72,21.68l-54.96,23.36c-0.987,0.42-2.048,0.638-3.12,0.64H177.28c-4.418,0-8-3.582-8-8 s3.582-8,8-8h64c30.928,0,56-25.072,56-56c0-4.418-3.582-8-8-8h-10.32c1.504-3.432,2.293-7.133,2.32-10.88 c-0.033-11.201-6.968-21.223-17.44-25.2l-14.56-5.44v-30.48h5.12c6.009,0,10.88,4.871,10.88,10.88v5.12h16v-5.12 c-0.044-14.827-12.053-26.836-26.88-26.88h-5.12v-16h-16v16h-5.12c-14.845-0.048-26.919,11.948-26.966,26.793 c-0.036,11.269,6.961,21.365,17.526,25.287l14.56,5.44v30.48h-5.12c-6.009,0-10.88-4.871-10.88-10.88v-5.12h-16v5.12 c0.027,3.747,0.816,7.448,2.32,10.88h-47.44c-12.082-0.001-24.007,2.734-34.88,8V169.162z M265.28,230.282 c0,6.009-4.871,10.88-10.88,10.88h-5.12v-24.48l8.96,3.36C262.467,221.685,265.259,225.747,265.28,230.282z M233.28,169.162v24.48 l-8.96-3.36c-4.227-1.643-7.019-5.705-7.04-10.24c0-6.009,4.871-10.88,10.88-10.88H233.28z M110,465.162H17.28v-132l22-16.56 l88,131.52L110,465.162z M458.08,314.042l-111.52,57.36c-8.016,4.095-16.507,7.185-25.28,9.2l-190.8,43.92l-63.28-94.96 l38.48-48.4c12.297-15.266,30.878-24.1,50.48-24h124.32c-3.802,18.627-20.189,32.004-39.2,32h-64c-13.255,0-24,10.745-24,24 s10.745,24,24,24H318c3.244,0.005,6.455-0.649,9.44-1.92l114.24-48.8c7.622-4.529,17.471-2.021,22,5.6 S465.702,309.513,458.08,314.042z"/>
    <path d="M81.28,409.162c-13.255,0-24,10.745-24,24s10.745,24,24,24s24-10.745,24-24S94.535,409.162,81.28,409.162z M81.28,441.162 c-4.418,0-8-3.582-8-8s3.582-8,8-8s8,3.582,8,8S85.698,441.162,81.28,441.162z"/>
    <path d="M434.56,49.162c-12.932-2.218-23.062-12.348-25.28-25.28c0-4.418-3.582-8-8-8s-8,3.582-8,8 c-2.218,12.932-12.348,23.062-25.28,25.28c-4.418,0-8,3.582-8,8s3.582,8,8,8c12.932,2.218,23.062,12.348,25.28,25.28 c0,4.418,3.582,8,8,8s8-3.582,8-8c2.218-12.932,12.348-23.062,25.28-25.28c4.418,0,8-3.582,8-8S438.978,49.162,434.56,49.162z M401.28,68.602c-3.104-4.463-6.977-8.336-11.44-11.44c4.463-3.104,8.336-6.977,11.44-11.44c3.104,4.463,6.977,8.336,11.44,11.44 C408.257,60.266,404.384,64.139,401.28,68.602z"/>
    <path d="M74.56,209.162c-12.932-2.218-23.062-12.348-25.28-25.28c0-4.418-3.582-8-8-8s-8,3.582-8,8 c-2.218,12.932-12.348,23.062-25.28,25.28c-4.418,0-8,3.582-8,8s3.582,8,8,8c12.932,2.218,23.062,12.348,25.28,25.28 c0,4.418,3.582,8,8,8s8-3.582,8-8c2.218-12.932,12.348-23.062,25.28-25.28c4.418,0,8-3.582,8-8S78.978,209.162,74.56,209.162z M41.28,228.602c-3.104-4.463-6.977-8.336-11.44-11.44c4.463-3.104,8.336-6.977,11.44-11.44c3.104,4.463,6.977,8.336,11.44,11.44 C48.257,220.266,44.384,224.139,41.28,228.602z"/>
  </svg>

  <svg id="phone" viewBox="0 0 473 473">
    <path d="M374.456,293.506c-9.7-10.1-21.4-15.5-33.8-15.5c-12.3,0-24.1,5.3-34.2,15.4l-31.6,31.5c-2.6-1.4-5.2-2.7-7.7-4 c-3.6-1.8-7-3.5-9.9-5.3c-29.6-18.8-56.5-43.3-82.3-75c-12.5-15.8-20.9-29.1-27-42.6c8.2-7.5,15.8-15.3,23.2-22.8 c2.8-2.8,5.6-5.7,8.4-8.5c21-21,21-48.2,0-69.2l-27.3-27.3c-3.1-3.1-6.3-6.3-9.3-9.5c-6-6.2-12.3-12.6-18.8-18.6 c-9.7-9.6-21.3-14.7-33.5-14.7s-24,5.1-34,14.7c-0.1,0.1-0.1,0.1-0.2,0.2l-34,34.3c-12.8,12.8-20.1,28.4-21.7,46.5 c-2.4,29.2,6.2,56.4,12.8,74.2c16.2,43.7,40.4,84.2,76.5,127.6c43.8,52.3,96.5,93.6,156.7,122.7c23,10.9,53.7,23.8,88,26 c2.1,0.1,4.3,0.2,6.3,0.2c23.1,0,42.5-8.3,57.7-24.8c0.1-0.2,0.3-0.3,0.4-0.5c5.2-6.3,11.2-12,17.5-18.1c4.3-4.1,8.7-8.4,13-12.9 c9.9-10.3,15.1-22.3,15.1-34.6c0-12.4-5.3-24.3-15.4-34.3L374.456,293.506z M410.256,398.806 C410.156,398.806,410.156,398.906,410.256,398.806c-3.9,4.2-7.9,8-12.2,12.2c-6.5,6.2-13.1,12.7-19.3,20 c-10.1,10.8-22,15.9-37.6,15.9c-1.5,0-3.1,0-4.6-0.1c-29.7-1.9-57.3-13.5-78-23.4c-56.6-27.4-106.3-66.3-147.6-115.6 c-34.1-41.1-56.9-79.1-72-119.9c-9.3-24.9-12.7-44.3-11.2-62.6c1-11.7,5.5-21.4,13.8-29.7l34.1-34.1c4.9-4.6,10.1-7.1,15.2-7.1 c6.3,0,11.4,3.8,14.6,7c0.1,0.1,0.2,0.2,0.3,0.3c6.1,5.7,11.9,11.6,18,17.9c3.1,3.2,6.3,6.4,9.5,9.7l27.3,27.3 c10.6,10.6,10.6,20.4,0,31c-2.9,2.9-5.7,5.8-8.6,8.6c-8.4,8.6-16.4,16.6-25.1,24.4c-0.2,0.2-0.4,0.3-0.5,0.5 c-8.6,8.6-7,17-5.2,22.7c0.1,0.3,0.2,0.6,0.3,0.9c7.1,17.2,17.1,33.4,32.3,52.7l0.1,0.1c27.6,34,56.7,60.5,88.8,80.8 c4.1,2.6,8.3,4.7,12.3,6.7c3.6,1.8,7,3.5,9.9,5.3c0.4,0.2,0.8,0.5,1.2,0.7c3.4,1.7,6.6,2.5,9.9,2.5c8.3,0,13.5-5.2,15.2-6.9 l34.2-34.2c3.4-3.4,8.8-7.5,15.1-7.5c6.2,0,11.3,3.9,14.4,7.3c0.1,0.1,0.1,0.1,0.2,0.2l55.1,55.1 C420.456,377.706,420.456,388.206,410.256,398.806z"/>
    <path d="M256.056,112.706c26.2,4.4,50,16.8,69,35.8s31.3,42.8,35.8,69c1.1,6.6,6.8,11.2,13.3,11.2c0.8,0,1.5-0.1,2.3-0.2 c7.4-1.2,12.3-8.2,11.1-15.6c-5.4-31.7-20.4-60.6-43.3-83.5s-51.8-37.9-83.5-43.3c-7.4-1.2-14.3,3.7-15.6,11 S248.656,111.506,256.056,112.706z"/>
    <path d="M473.256,209.006c-8.9-52.2-33.5-99.7-71.3-137.5s-85.3-62.4-137.5-71.3c-7.3-1.3-14.2,3.7-15.5,11 c-1.2,7.4,3.7,14.3,11.1,15.6c46.6,7.9,89.1,30,122.9,63.7c33.8,33.8,55.8,76.3,63.7,122.9c1.1,6.6,6.8,11.2,13.3,11.2 c0.8,0,1.5-0.1,2.3-0.2C469.556,223.306,474.556,216.306,473.256,209.006z"/>
  </svg>

  <svg id="right-arrow" viewBox="0 0 31 31">
    <path d="M21.205,5.007c-0.429-0.444-1.143-0.444-1.587,0c-0.429,0.429-0.429,1.143,0,1.571l8.047,8.047H1.111 C0.492,14.626,0,15.118,0,15.737c0,0.619,0.492,1.127,1.111,1.127h26.554l-8.047,8.032c-0.429,0.444-0.429,1.159,0,1.587 c0.444,0.444,1.159,0.444,1.587,0l9.952-9.952c0.444-0.429,0.444-1.143,0-1.571L21.205,5.007z"/>
  </svg>

  <svg id="search" viewBox="0 0 512 512">
    <path d="M310,190c-5.52,0-10,4.48-10,10s4.48,10,10,10c5.52,0,10-4.48,10-10S315.52,190,310,190z"/>
    <path d="M500.281,443.719l-133.48-133.48C388.546,277.485,400,239.555,400,200C400,89.72,310.28,0,200,0S0,89.72,0,200 s89.72,200,200,200c39.556,0,77.486-11.455,110.239-33.198l36.895,36.895c0.005,0.005,0.01,0.01,0.016,0.016l96.568,96.568 C451.276,507.838,461.319,512,472,512c10.681,0,20.724-4.162,28.278-11.716C507.837,492.731,512,482.687,512,472 S507.837,451.269,500.281,443.719z M305.536,345.727c0,0.001-0.001,0.001-0.002,0.002C274.667,368.149,238.175,380,200,380 c-99.252,0-180-80.748-180-180S100.748,20,200,20s180,80.748,180,180c0,38.175-11.851,74.667-34.272,105.535 C334.511,320.988,320.989,334.511,305.536,345.727z M326.516,354.793c10.35-8.467,19.811-17.928,28.277-28.277l28.371,28.371 c-8.628,10.183-18.094,19.65-28.277,28.277L326.516,354.793z M486.139,486.139c-3.78,3.78-8.801,5.861-14.139,5.861 s-10.359-2.081-14.139-5.861l-88.795-88.795c10.127-8.691,19.587-18.15,28.277-28.277l88.798,88.798 C489.919,461.639,492,466.658,492,472C492,477.342,489.919,482.361,486.139,486.139z"/>
    <path d="M200,40c-88.225,0-160,71.775-160,160s71.775,160,160,160s160-71.775,160-160S288.225,40,200,40z M200,340 c-77.196,0-140-62.804-140-140S122.804,60,200,60s140,62.804,140,140S277.196,340,200,340z"/>
    <path d="M312.065,157.073c-8.611-22.412-23.604-41.574-43.36-55.413C248.479,87.49,224.721,80,200,80c-5.522,0-10,4.478-10,10 c0,5.522,4.478,10,10,10c41.099,0,78.631,25.818,93.396,64.247c1.528,3.976,5.317,6.416,9.337,6.416 c1.192,0,2.405-0.215,3.584-0.668C311.472,168.014,314.046,162.229,312.065,157.073z"/>
  </svg>

  <svg id="whatsapp" viewBox="0 0 512 512">
    <path d="m439.277344 72.722656c-46.898438-46.898437-109.238282-72.722656-175.566406-72.722656-.003907 0-.019532 0-.023438 0-32.804688.00390625-64.773438 6.355469-95.011719 18.882812-30.242187 12.527344-57.335937 30.640626-80.535156 53.839844-46.894531 46.894532-72.71875 109.246094-72.71875 175.566406 0 39.550782 9.542969 78.855469 27.625 113.875l-41.734375 119.226563c-2.941406 8.410156-.859375 17.550781 5.445312 23.851563 4.410157 4.414062 10.214844 6.757812 16.183594 6.757812 2.558594 0 5.144532-.429688 7.667969-1.3125l119.226563-41.730469c35.019531 18.082031 74.324218 27.625 113.875 27.625 66.320312 0 128.667968-25.828125 175.566406-72.722656 46.894531-46.894531 72.722656-109.246094 72.722656-175.566406 0-66.324219-25.824219-128.675781-72.722656-175.570313zm-21.234375 329.902344c-41.222657 41.226562-96.035157 63.925781-154.332031 63.925781-35.664063 0-71.09375-8.820312-102.460938-25.515625-5.6875-3.023437-12.410156-3.542968-18.445312-1.429687l-108.320313 37.910156 37.914063-108.320313c2.113281-6.042968 1.589843-12.765624-1.433594-18.449218-16.691406-31.359375-25.515625-66.789063-25.515625-102.457032 0-58.296874 22.703125-113.109374 63.925781-154.332031 41.21875-41.21875 96.023438-63.921875 154.316406-63.929687h.019532c58.300781 0 113.109374 22.703125 154.332031 63.929687 41.226562 41.222657 63.929687 96.03125 63.929687 154.332031 0 58.300782-22.703125 113.113282-63.929687 154.335938zm0 0"/><path d="m355.984375 270.46875c-11.421875-11.421875-30.007813-11.421875-41.429687 0l-12.492188 12.492188c-31.019531-16.902344-56.121094-42.003907-73.027344-73.023438l12.492188-12.492188c11.425781-11.421874 11.425781-30.007812 0-41.429687l-33.664063-33.664063c-11.421875-11.421874-30.007812-11.421874-41.429687 0l-26.929688 26.929688c-15.425781 15.425781-16.195312 41.945312-2.167968 74.675781 12.179687 28.417969 34.46875 59.652344 62.761718 87.945313 28.292969 28.292968 59.527344 50.582031 87.945313 62.761718 15.550781 6.664063 29.695312 9.988282 41.917969 9.988282 13.503906 0 24.660156-4.058594 32.757812-12.15625l26.929688-26.933594v.003906c5.535156-5.535156 8.582031-12.890625 8.582031-20.714844 0-7.828124-3.046875-15.183593-8.582031-20.714843zm-14.5 80.792969c-4.402344 4.402343-17.941406 5.945312-41.609375-4.195313-24.992188-10.710937-52.886719-30.742187-78.542969-56.398437s-45.683593-53.546875-56.394531-78.539063c-10.144531-23.667968-8.601562-37.210937-4.199219-41.613281l26.414063-26.414063 32.625 32.628907-15.636719 15.640625c-7.070313 7.070312-8.777344 17.792968-4.242187 26.683594 20.558593 40.3125 52.734374 72.488281 93.046874 93.046874 8.894532 4.535157 19.617188 2.832032 26.6875-4.242187l15.636719-15.636719 32.628907 32.628906zm0 0"/>
  </svg>

  <svg id="world" viewBox="0 0 480 480">
    <path d="M240.135,0.05C144.085,0.036,57.277,57.289,19.472,145.586l-2.992,0.992l1.16,3.48c-49.776,122.766,9.393,262.639,132.159,312.415c28.673,11.626,59.324,17.594,90.265,17.577c132.548,0.02,240.016-107.416,240.036-239.964S372.684,0.069,240.135,0.05z M428.388,361.054l-12.324-12.316V320.05c0.014-1.238-0.26-2.462-0.8-3.576l-31.2-62.312V224.05c0-2.674-1.335-5.172-3.56-6.656l-24-16c-1.881-1.256-4.206-1.657-6.4-1.104l-29.392,7.344l-49.368-21.184l-6.792-47.584l18.824-18.816h40.408l13.6,20.44c1.228,1.838,3.163,3.087,5.344,3.448l48,8c1.286,0.216,2.604,0.111,3.84-0.304l44.208-14.736C475.855,208.053,471.889,293.634,428.388,361.054z M395.392,78.882l-13.008,8.672l-36.264-7.256l-23.528-7.832c-1.44-0.489-2.99-0.551-4.464-0.176l-29.744,7.432l-13.04-4.344l9.664-19.328h27.056c1.241,0.001,2.465-0.286,3.576-0.84l27.68-13.84C362.382,51.32,379.918,63.952,395.392,78.882z M152.44,33.914l19.2,12.8c0.944,0.628,2.01,1.048,3.128,1.232l38.768,6.464l-3.784,11.32l-20.2,6.744c-1.809,0.602-3.344,1.83-4.328,3.464l-22.976,38.288l-36.904,22.144l-54.4,7.768c-3.943,0.557-6.875,3.93-6.88,7.912v24c0,2.122,0.844,4.156,2.344,5.656l13.656,13.656v13.744l-33.28-22.192l-12.072-36.216C57.68,98.218,99.777,56.458,152.44,33.914z M129.664,296.21l-36.16-7.24l-13.44-26.808v-18.8l29.808-29.808l11.032,22.072c1.355,2.712,4.128,4.425,7.16,4.424h51.472l21.672,36.12c1.446,2.407,4.048,3.879,6.856,3.88h22.24l-5.6,28.056l-30.288,30.288c-1.503,1.499-2.349,3.533-2.352,5.656v20l-28.8,21.6c-2.014,1.511-3.2,3.882-3.2,6.4v28.896l-9.952-3.296l-14.048-35.136V304.05C136.065,300.248,133.389,296.97,129.664,296.21z M105.616,419.191C30.187,362.602-1.712,264.826,25.832,174.642l6.648,19.936c0.56,1.687,1.666,3.14,3.144,4.128l39.88,26.584l-9.096,9.104c-1.5,1.5-2.344,3.534-2.344,5.656v24c-0.001,1.241,0.286,2.465,0.84,3.576l16,32c1.108,2.21,3.175,3.784,5.6,4.264l33.6,6.712v73.448c-0.001,1.016,0.192,2.024,0.568,2.968l16,40c0.876,2.185,2.67,3.874,4.904,4.616l24,8c0.802,0.272,1.642,0.412,2.488,0.416c4.418,0,8-3.582,8-8v-36l28.8-21.6c2.014-1.511,3.2-3.882,3.2-6.4v-20.688l29.656-29.656c1.115-1.117,1.875-2.54,2.184-4.088l8-40c0.866-4.333-1.944-8.547-6.277-9.413c-0.515-0.103-1.038-0.155-1.563-0.155h-27.472l-21.672-36.12c-1.446-2.407-4.048-3.879-6.856-3.88h-51.056l-13.744-27.576c-1.151-2.302-3.339-3.91-5.88-4.32c-2.54-0.439-5.133,0.399-6.936,2.24l-10.384,10.344V192.05c0-2.122-0.844-4.156-2.344-5.656l-13.656-13.656v-13.752l49.136-7.016c1.055-0.153,2.07-0.515,2.984-1.064l40-24c1.122-0.674,2.062-1.614,2.736-2.736l22.48-37.464l21.192-7.072c2.393-0.785,4.271-2.662,5.056-5.056l8-24c1.386-4.195-0.891-8.72-5.086-10.106c-0.387-0.128-0.784-0.226-1.186-0.294l-46.304-7.72l-8.136-5.424c50.343-16.386,104.869-14.358,153.856,5.72l-14.616,7.296h-30.112c-3.047-0.017-5.838,1.699-7.2,4.424l-16,32c-1.971,3.954-0.364,8.758,3.59,10.729c0.337,0.168,0.685,0.312,1.042,0.431l24,8c1.44,0.489,2.99,0.551,4.464,0.176l29.744-7.432l21.792,7.256c0.312,0.112,0.633,0.198,0.96,0.256l40,8c2.08,0.424,4.244-0.002,6.008-1.184l18.208-12.144c8.961,9.981,17.014,20.741,24.064,32.152l-39.36,13.12l-42.616-7.104l-14.08-21.12c-1.476-2.213-3.956-3.547-6.616-3.56h-48c-2.122,0-4.156,0.844-5.656,2.344l-24,24c-1.782,1.781-2.621,4.298-2.264,6.792l8,56c0.403,2.769,2.223,5.126,4.8,6.216l56,24c1.604,0.695,3.394,0.838,5.088,0.408l28.568-7.144l17.464,11.664v27.72c-0.014,1.238,0.26,2.462,0.8,3.576l31.2,62.312v30.112c0,2.122,0.844,4.156,2.344,5.656l16.736,16.744C344.921,473.383,204.549,493.415,105.616,419.191z"/>
  </svg>

</svg>
