<?xml version="1.0" encoding="utf-8"?>
<svg version="1.1" xmlns="http://www.w3.org/2000/svg" xmlns:xlink="http://www.w3.org/1999/xlink">

  <svg id="active" viewBox="0 0 426 426">
    <path d="M213.333,0C95.518,0,0,95.514,0,213.333s95.518,213.333,213.333,213.333 c117.828,0,213.333-95.514,213.333-213.333S331.157,0,213.333,0z M174.199,322.918l-93.935-93.931l31.309-31.309l62.626,62.622 l140.894-140.898l31.309,31.309L174.199,322.918z"/>
  </svg>

  <svg id="area" viewBox="0 0 368 368">
    <path d="M360,0H56H8C3.584,0,0,3.584,0,8v48v304c0,4.416,3.584,8,8,8h48c4.416,0,8-3.584,8-8v-8h232c2.12,0,4.16-0.84,5.656-2.344 l48-48C351.16,300.16,352,298.12,352,296V64h8c4.416,0,8-3.584,8-8V8C368,3.584,364.416,0,360,0z M48,352H16V64h32V352z M48,48H16 V16h32V48z M336,292.688L292.688,336H288v-48h48V292.688z M336,272h-56c-4.416,0-8,3.584-8,8v56H64V192h40c4.416,0,8-3.584,8-8 c0-4.416-3.584-8-8-8H64V64h112v40c0,4.416,3.584,8,8,8s8-3.584,8-8V64h144V272z M352,48H64V16h288V48z"/>
    <path d="M184,144c-4.416,0-8,3.584-8,8v24h-24c-4.416,0-8,3.584-8,8s3.584,8,8,8h32c4.416,0,8-3.584,8-8v-32 C192,147.584,188.416,144,184,144z"/>
  </svg>

  <svg id="bath" viewBox="0 0 512 512">
    <path d="M485.4,272.067h-8.533v-179.2c0-42.667-34.133-76.8-76.8-76.8c-37.77,0-64.935,28.006-67.974,69.041 c-19.829,3.748-34.426,20.826-34.426,41.892c0,5.12,3.413,8.533,8.533,8.533h68.267c5.12,0,8.533-3.413,8.533-8.533 c0-20.833-14.274-37.769-33.767-41.767c2.55-27.116,18.836-52.1,50.834-52.1c33.28,0,59.733,26.453,59.733,59.733v179.2H202.975 c-3.86-19.681-20.878-34.133-41.841-34.133c-8.533-10.24-20.48-17.067-34.133-17.067c-16.213,0-30.72,9.387-37.547,23.04 c-6.827-3.413-14.507-5.973-22.187-5.973c-20.963,0-37.981,14.452-41.841,34.133H24.6c-14.507,0-25.6,11.093-25.6,25.6 c0,14.507,11.093,25.6,25.6,25.6h10.255l23.025,91.307c6.827,26.453,30.72,45.227,58.027,45.227h6.827l-11.093,22.187 c-2.56,4.267-0.853,9.387,3.413,11.093c0.853,0.853,2.56,0.853,3.413,0.853c3.413,0,5.973-1.707,7.68-4.267L141.08,459.8h236.8 l14.507,29.013c1.707,3.413,4.267,5.12,7.68,5.12c1.707,0,2.56,0,3.413-1.707c3.413-1.707,5.12-6.827,3.413-11.093 l-10.689-21.379c26.419-0.938,49.266-19.39,55.916-44.328l23.24-92.16h10.04c14.507,0,25.6-11.093,25.6-25.6 C511,283.16,499.907,272.067,485.4,272.067z M365.08,118.467h-48.64c3.413-10.24,13.653-17.067,24.747-17.067 S361.667,108.227,365.08,118.467z M67.267,255c7.68,0,14.507,3.413,20.48,9.387c1.707,2.56,5.12,3.413,8.533,2.56 s5.12-3.413,5.973-6.827c2.56-12.8,12.8-22.187,25.6-22.187c9.387,0,17.92,4.267,22.187,12.8c1.707,3.413,5.973,5.12,9.387,4.267 c0.853,0,1.707,0,2.56,0c11.093,0,20.48,6.827,23.893,17.067H43.373C46.787,261.827,56.173,255,67.267,255z M436.76,410.307 c-5.12,18.773-22.187,32.427-41.813,32.427H116.76c-19.627,0-36.693-13.653-41.813-32.427l-22.187-87.04h404.48L436.76,410.307z M485.4,306.2h-17.067H41.667H24.6c-5.12,0-8.533-3.413-8.533-8.533s3.413-8.533,8.533-8.533h8.533h162.133H485.4 c5.12,0,8.533,3.413,8.533,8.533S490.52,306.2,485.4,306.2z"/>
    <path d="M306.2,173.933c5.12,0,8.533-3.413,8.533-8.533v-4.267c0-5.12-3.413-8.533-8.533-8.533s-8.533,3.413-8.533,8.533v4.267 C297.667,170.52,301.08,173.933,306.2,173.933z"/>
    <path d="M306.2,213.187c5.12,0,8.533-4.267,8.533-8.533v-9.387c0-5.12-3.413-8.533-8.533-8.533s-8.533,3.413-8.533,8.533v9.387 C297.667,209.773,301.08,213.187,306.2,213.187z"/>
    <path d="M306.2,246.467c5.12,0,8.533-3.413,8.533-8.533v-4.267c0-5.12-3.413-8.533-8.533-8.533s-8.533,3.413-8.533,8.533v4.267 C297.667,243.053,301.08,246.467,306.2,246.467z"/>
    <path d="M340.333,173.933c5.12,0,8.533-3.413,8.533-8.533v-4.267c0-5.12-3.413-8.533-8.533-8.533 c-5.12,0-8.533,3.413-8.533,8.533v4.267C331.8,170.52,335.213,173.933,340.333,173.933z"/>
    <path d="M331.8,204.653c0,5.12,3.413,8.533,8.533,8.533c5.12,0,8.533-4.267,8.533-8.533v-9.387c0-5.12-3.413-8.533-8.533-8.533 c-5.12,0-8.533,3.413-8.533,8.533V204.653z"/>
    <path d="M331.8,237.933c0,5.12,3.413,8.533,8.533,8.533c5.12,0,8.533-3.413,8.533-8.533v-4.267c0-5.12-3.413-8.533-8.533-8.533 c-5.12,0-8.533,3.413-8.533,8.533V237.933z"/>
    <path d="M374.467,173.933c5.12,0,8.533-3.413,8.533-8.533v-4.267c0-5.12-3.413-8.533-8.533-8.533s-8.533,3.413-8.533,8.533v4.267 C365.933,170.52,369.347,173.933,374.467,173.933z"/>
    <path d="M365.933,204.653c0,5.12,3.413,8.533,8.533,8.533S383,208.92,383,204.653v-9.387c0-5.12-3.413-8.533-8.533-8.533 s-8.533,3.413-8.533,8.533V204.653z"/>
    <path d="M365.933,237.933c0,5.12,3.413,8.533,8.533,8.533s8.533-3.413,8.533-8.533v-4.267c0-5.12-3.413-8.533-8.533-8.533 s-8.533,3.413-8.533,8.533V237.933z"/>
  </svg>

  <svg id="bed" viewBox="0 -200 480 480">
    <path d="m472 0h-32c-4.417969 0-8 3.582031-8 8v48.804688c-10.40625-9.164063-27.503906-16.804688-56-16.804688-53.023438 0-66.984375 26.347656-70.667969 40h-33.332031v-16c-.011719-8.832031-7.167969-15.988281-16-16h-32c-8.832031.011719-15.988281 7.167969-16 16h-168c-13.25.015625-23.984375 10.75-24 24v40h-8c-4.417969 0-8 3.582031-8 8v112c0 4.417969 3.582031 8 8 8h24c3.910156 0 7.25-2.824219 7.890625-6.683594l6.886719-41.316406h386.445312l6.886719 41.316406c.640625 3.859375 3.980469 6.683594 7.890625 6.683594h24c4.417969 0 8-3.582031 8-8v-240c0-4.417969-3.582031-8-8-8zm-96 56c37.492188 0 49.882812 14.511719 53.976562 24h-107.945312c4.109375-9.519531 16.515625-24 53.96875-24zm56 40v32h-160v-32zm-208-32h32v64h-32zm-192 24c.003906-4.417969 3.582031-7.996094 8-8h168v48h-176zm-16 56h416v48h-416zm9.226562 96h-9.226562v-32h14.554688zm438.773438 0h-9.226562l-6.773438-40.660156v-183.339844h16zm0 0"/>
  </svg>

  <svg id="car" viewBox="0 -100 512 512">
    <path d="M401.067,287.834c-23.526,0-42.667,19.14-42.667,42.667c0,23.526,19.14,42.667,42.667,42.667 c23.526,0,42.667-19.14,42.667-42.667C443.733,306.975,424.593,287.834,401.067,287.834z M401.067,356.101 c-14.114,0-25.6-11.486-25.6-25.6s11.486-25.6,25.6-25.6c14.114,0,25.6,11.486,25.6,25.6S415.181,356.101,401.067,356.101z"/>
    <path d="M110.933,287.834c-23.526,0-42.667,19.14-42.667,42.667c0,23.526,19.14,42.667,42.667,42.667 c23.526,0,42.667-19.14,42.667-42.667C153.6,306.975,134.46,287.834,110.933,287.834z M110.933,356.101 c-14.114,0-25.6-11.486-25.6-25.6s11.486-25.6,25.6-25.6s25.6,11.486,25.6,25.6S125.047,356.101,110.933,356.101z"/>
    <path d="M503.467,287.834v-51.2c0-3.678-2.347-6.938-5.837-8.098l-48.154-16.051c-18.133-30.711-43.059-59.938-98.142-69.589 c-0.102-0.017-0.205-0.034-0.307-0.051c-101.717-14.063-178.091,8.883-227.123,68.224C67.217,211.888,8.533,229.765,8.533,262.234 v25.6c-4.71,0-8.533,3.823-8.533,8.533v34.133c0,4.71,3.823,8.533,8.533,8.533h34.133c4.71,0,8.533-3.823,8.533-8.533 c0-32.939,26.795-59.733,59.733-59.733s59.733,26.795,59.733,59.733c0,4.71,3.823,8.533,8.533,8.533h153.6 c4.71,0,8.533-3.823,8.533-8.533c0-32.939,26.795-59.733,59.733-59.733c32.939,0,59.733,26.795,59.733,59.733 c0,4.71,3.823,8.533,8.533,8.533h34.133c4.71,0,8.533-3.823,8.533-8.533v-34.133C512,291.657,508.177,287.834,503.467,287.834z  M392.951,175.672c14.822,9.088,25.865,21.086,35.447,35.362h-35.78L392.951,175.672z M290.133,155.9 c18.253-0.247,37.666,0.973,58.411,3.84c10.274,1.809,19.302,4.378,27.426,7.569l-0.418,43.733h-85.419V155.9z M273.067,156.626 v54.417H146.961C178.594,178.411,220.305,160.38,273.067,156.626z M494.933,321.968h-17.536 c-4.258-38.349-36.864-68.267-76.331-68.267s-72.073,29.918-76.331,68.267H187.264c-4.258-38.349-36.864-68.267-76.331-68.267 s-72.073,29.918-76.331,68.267H17.067v-17.067c4.71,0,8.533-3.823,8.533-8.533v-25.6h8.533c4.71,0,8.533-3.823,8.533-8.533 c0-4.71-3.823-8.533-8.533-8.533h-4.42c11.546-12.535,46.865-25.6,98.287-25.6h314.342l44.058,14.686v10.914h-8.533 c-4.71,0-8.533,3.823-8.533,8.533c0,4.71,3.823,8.533,8.533,8.533h8.533v25.6c0,4.71,3.823,8.533,8.533,8.533V321.968z"/>
  </svg>

  <svg id="check" viewBox="0 0 474 474">
    <path d="M396.283,257.097c-1.14-0.575-2.282-0.862-3.433-0.862c-2.478,0-4.661,0.951-6.563,2.857l-18.274,18.271 c-1.708,1.715-2.566,3.806-2.566,6.283v72.513c0,12.565-4.463,23.314-13.415,32.264c-8.945,8.945-19.701,13.418-32.264,13.418 H82.226c-12.564,0-23.319-4.473-32.264-13.418c-8.947-8.949-13.418-19.698-13.418-32.264V118.622 c0-12.562,4.471-23.316,13.418-32.264c8.945-8.946,19.7-13.418,32.264-13.418H319.77c4.188,0,8.47,0.571,12.847,1.714 c1.143,0.378,1.999,0.571,2.563,0.571c2.478,0,4.668-0.949,6.57-2.852l13.99-13.99c2.282-2.281,3.142-5.043,2.566-8.276 c-0.571-3.046-2.286-5.236-5.141-6.567c-10.272-4.752-21.412-7.139-33.403-7.139H82.226c-22.65,0-42.018,8.042-58.102,24.126 C8.042,76.613,0,95.978,0,118.629v237.543c0,22.647,8.042,42.014,24.125,58.098c16.084,16.088,35.452,24.13,58.102,24.13h237.541 c22.647,0,42.017-8.042,58.101-24.13c16.085-16.084,24.134-35.45,24.134-58.098v-90.797 C402.001,261.381,400.088,258.623,396.283,257.097z"/>
    <path d="M467.95,93.216l-31.409-31.409c-4.568-4.567-9.996-6.851-16.279-6.851c-6.275,0-11.707,2.284-16.271,6.851 L219.265,246.532l-75.084-75.089c-4.569-4.57-9.995-6.851-16.274-6.851c-6.28,0-11.704,2.281-16.274,6.851l-31.405,31.405 c-4.568,4.568-6.854,9.994-6.854,16.277c0,6.28,2.286,11.704,6.854,16.274l122.767,122.767c4.569,4.571,9.995,6.851,16.274,6.851 c6.279,0,11.704-2.279,16.274-6.851l232.404-232.403c4.565-4.567,6.854-9.994,6.854-16.274S472.518,97.783,467.95,93.216z"/>
  </svg>

  <svg id="delete" viewBox="0 0 407 407">
    <path d="m89.199219 37c0-12.132812 9.46875-21 21.601562-21h88.800781c12.128907 0 21.597657 8.867188 21.597657 21v23h16v-23c0-20.953125-16.644531-37-37.597657-37h-88.800781c-20.953125 0-37.601562 16.046875-37.601562 37v23h16zm0 0"/><path d="m60.601562 407h189.199219c18.242188 0 32.398438-16.046875 32.398438-36v-247h-254v247c0 19.953125 14.15625 36 32.402343 36zm145.597657-244.800781c0-4.417969 3.582031-8 8-8s8 3.582031 8 8v189c0 4.417969-3.582031 8-8 8s-8-3.582031-8-8zm-59 0c0-4.417969 3.582031-8 8-8s8 3.582031 8 8v189c0 4.417969-3.582031 8-8 8s-8-3.582031-8-8zm-59 0c0-4.417969 3.582031-8 8-8s8 3.582031 8 8v189c0 4.417969-3.582031 8-8 8s-8-3.582031-8-8zm0 0"/><path d="m20 108h270.398438c11.046874 0 20-8.953125 20-20s-8.953126-20-20-20h-270.398438c-11.046875 0-20 8.953125-20 20s8.953125 20 20 20zm0 0"/>
  </svg>

  <svg id="edit" viewBox="0 0 381 381">
    <path d="m370.589844 230.964844c-5.523438 0-10 4.476562-10 10v88.792968c-.019532 16.558594-13.4375 29.980469-30 30h-280.589844c-16.5625-.019531-29.980469-13.441406-30-30v-260.589843c.019531-16.5625 13.4375-29.980469 30-30h88.789062c5.523438 0 10-4.476563 10-10 0-5.523438-4.476562-10-10-10h-88.789062c-27.601562.03125-49.96875 22.398437-50 50v260.589843c.03125 27.601563 22.398438 49.96875 50 50h280.589844c27.601562-.03125 49.96875-22.398437 50-50v-88.789062c0-5.523438-4.476563-10.003906-10-10.003906zm0 0"/><path d="m156.367188 178.34375 146.011718-146.015625 47.089844 47.089844-146.011719 146.015625zm0 0"/><path d="m132.542969 249.257812 52.039062-14.414062-37.625-37.625zm0 0"/><path d="m362.488281 7.578125c-9.769531-9.746094-25.585937-9.746094-35.355469 0l-10.605468 10.605469 47.089844 47.089844 10.605468-10.605469c9.75-9.769531 9.75-25.585938 0-35.355469zm0 0"/>
  </svg>

  <svg id="inactive" viewBox="0 0 496 496">
    <path d="M496.158,248.085c0-137.021-111.07-248.082-248.076-248.082C111.07,0.003,0,111.063,0,248.085 c0,137.002,111.07,248.07,248.082,248.07C385.088,496.155,496.158,385.087,496.158,248.085z"/>
    <path style="fill:#FFFFFF;" d="M277.042,248.082l72.528-84.196c7.91-9.182,6.876-23.041-2.31-30.951 c-9.172-7.904-23.032-6.876-30.947,2.306l-68.236,79.212l-68.229-79.212c-7.91-9.188-21.771-10.216-30.954-2.306 c-9.186,7.91-10.214,21.77-2.304,30.951l72.522,84.196l-72.522,84.192c-7.91,9.182-6.882,23.041,2.304,30.951 c4.143,3.569,9.241,5.318,14.316,5.318c6.161,0,12.294-2.586,16.638-7.624l68.229-79.212l68.236,79.212 c4.338,5.041,10.47,7.624,16.637,7.624c5.069,0,10.168-1.749,14.311-5.318c9.186-7.91,10.22-21.77,2.31-30.951L277.042,248.082z"/>
  </svg>

  <svg id="kitchen" viewBox="-96 0 512 512">
    <path d="m280 0h-240c-22.058594 0-40 17.941406-40 40v392c0 22.058594 17.941406 40 40 40h10v10c0 16.539062 13.460938 30 30 30h10c11.03125 0 20-8.96875 20-20v-20h100v20c0 11.03125 8.96875 20 20 20h10c16.539062 0 30-13.460938 30-30v-10h10c22.058594 0 40-17.941406 40-40v-392c0-22.058594-17.941406-40-40-40zm-190 492h-10c-5.511719 0-10-4.488281-10-10v-10h20l.011719 20s0 0-.011719 0zm160-10c0 5.511719-4.488281 10-10 10h-10v-20h20zm50-50c0 11.03125-8.96875 20-20 20h-240c-11.03125 0-20-8.96875-20-20v-240h280zm0-260h-280v-132c0-11.03125 8.96875-20 20-20h240c11.03125 0 20 8.96875 20 20zm0 0"/><path d="m130.179688 152h-70c-11.027344 0-20-8.972656-20-20v-10c0-16.542969 13.457031-30 30-30h50c16.542968 0 30 13.457031 30 30v10c0 11.027344-8.972657 20-20 20zm-60-40c-5.515626 0-10 4.484375-10 10v10h70.003906l-.003906-10c0-5.515625-4.484376-10-10-10zm0 0"/><path d="m120.179688 272h-50c-16.542969 0-30-13.457031-30-30v-10c0-11.027344 8.972656-20 20-20h70c11.027343 0 20 8.972656 20 20v10c0 16.542969-13.457032 30-30 30zm-60-40v10c0 5.515625 4.484374 10 10 10h50c5.515624 0 10-4.484375 10-10v-10zm0 0"/><path d="m270 432c-5.523438 0-10-4.476562-10-10v-80c0-5.523438 4.476562-10 10-10s10 4.476562 10 10v80c0 5.523438-4.476562 10-10 10zm0 0"/><path d="m270.019531 312c-5.523437 0-10.003906-4.476562-10.003906-10s4.472656-10 9.996094-10h.007812c5.523438 0 10 4.476562 10 10s-4.476562 10-10 10zm0 0"/>
  </svg>

  <svg id="left-arrow" viewBox="0 0 31 31">
    <path d="M10.273,5.009c0.444-0.444,1.143-0.444,1.587,0c0.429,0.429,0.429,1.143,0,1.571l-8.047,8.047h26.554 c0.619,0,1.127,0.492,1.127,1.111c0,0.619-0.508,1.127-1.127,1.127H3.813l8.047,8.032c0.429,0.444,0.429,1.159,0,1.587 c-0.444,0.444-1.143,0.444-1.587,0l-9.952-9.952c-0.429-0.429-0.429-1.143,0-1.571L10.273,5.009z"/>
  </svg>

  <svg id="location" viewBox="0 0 512 512">
    <path d="M256,0C156.748,0,76,80.748,76,180c0,33.534,9.289,66.26,26.869,94.652l142.885,230.257 c2.737,4.411,7.559,7.091,12.745,7.091c0.04,0,0.079,0,0.119,0c5.231-0.041,10.063-2.804,12.75-7.292L410.611,272.22 C427.221,244.428,436,212.539,436,180C436,80.748,355.252,0,256,0z M384.866,256.818L258.272,468.186l-129.905-209.34 C113.734,235.214,105.8,207.95,105.8,180c0-82.71,67.49-150.2,150.2-150.2S406.1,97.29,406.1,180 C406.1,207.121,398.689,233.688,384.866,256.818z"/>
    <path d="M256,90c-49.626,0-90,40.374-90,90c0,49.309,39.717,90,90,90c50.903,0,90-41.233,90-90C346,130.374,305.626,90,256,90z M256,240.2c-33.257,0-60.2-27.033-60.2-60.2c0-33.084,27.116-60.2,60.2-60.2s60.1,27.116,60.1,60.2 C316.1,212.683,289.784,240.2,256,240.2z"/>
  </svg>

  <svg id="money" viewBox="0 0 482 482">
    <path d="M478.28,284.402c-8.594-15.464-28.096-21.034-43.56-12.44l-43.68,18.8l-11.2-22.4c-1.673-3.326-2.55-6.996-2.56-10.72 v-88.48c-0.069-56.083-41.609-103.469-97.2-110.88l32-44.48c2.565-3.597,1.729-8.593-1.868-11.158 c-1.436-1.024-3.17-1.545-4.932-1.482h-128c-4.418,0.02-7.983,3.619-7.963,8.037c0.008,1.651,0.526,3.259,1.483,4.603l32,44.48 c-55.718,7.264-97.43,54.69-97.52,110.88v90.16c-4.436,3.596-8.484,7.644-12.08,12.08l-35.36,44.24l-9.92-14.88 c-1.183-1.881-3.096-3.186-5.28-3.6c-2.173-0.31-4.381,0.235-6.16,1.52l-32,24c-2.037,1.528-3.225,3.934-3.2,6.48v144 c0,4.418,3.582,8,8,8h104c2.126,0.012,4.17-0.823,5.68-2.32l24-24c2.676-2.704,3.078-6.919,0.96-10.08l-4-6l185.04-42.56 c10.024-2.319,19.724-5.866,28.88-10.56l112-57.68C481.304,319.368,486.874,299.866,478.28,284.402z M192.8,17.162h96.96 l-28.56,40h-40L192.8,17.162z M121.28,169.162c0-53.019,42.981-96,96-96h48c53.019,0,96,42.981,96,96v88.48 c0.013,6.195,1.464,12.302,4.24,17.84l10.72,21.68l-54.96,23.36c-0.987,0.42-2.048,0.638-3.12,0.64H177.28c-4.418,0-8-3.582-8-8 s3.582-8,8-8h64c30.928,0,56-25.072,56-56c0-4.418-3.582-8-8-8h-10.32c1.504-3.432,2.293-7.133,2.32-10.88 c-0.033-11.201-6.968-21.223-17.44-25.2l-14.56-5.44v-30.48h5.12c6.009,0,10.88,4.871,10.88,10.88v5.12h16v-5.12 c-0.044-14.827-12.053-26.836-26.88-26.88h-5.12v-16h-16v16h-5.12c-14.845-0.048-26.919,11.948-26.966,26.793 c-0.036,11.269,6.961,21.365,17.526,25.287l14.56,5.44v30.48h-5.12c-6.009,0-10.88-4.871-10.88-10.88v-5.12h-16v5.12 c0.027,3.747,0.816,7.448,2.32,10.88h-47.44c-12.082-0.001-24.007,2.734-34.88,8V169.162z M265.28,230.282 c0,6.009-4.871,10.88-10.88,10.88h-5.12v-24.48l8.96,3.36C262.467,221.685,265.259,225.747,265.28,230.282z M233.28,169.162v24.48 l-8.96-3.36c-4.227-1.643-7.019-5.705-7.04-10.24c0-6.009,4.871-10.88,10.88-10.88H233.28z M110,465.162H17.28v-132l22-16.56 l88,131.52L110,465.162z M458.08,314.042l-111.52,57.36c-8.016,4.095-16.507,7.185-25.28,9.2l-190.8,43.92l-63.28-94.96 l38.48-48.4c12.297-15.266,30.878-24.1,50.48-24h124.32c-3.802,18.627-20.189,32.004-39.2,32h-64c-13.255,0-24,10.745-24,24 s10.745,24,24,24H318c3.244,0.005,6.455-0.649,9.44-1.92l114.24-48.8c7.622-4.529,17.471-2.021,22,5.6 S465.702,309.513,458.08,314.042z"/>
    <path d="M81.28,409.162c-13.255,0-24,10.745-24,24s10.745,24,24,24s24-10.745,24-24S94.535,409.162,81.28,409.162z M81.28,441.162 c-4.418,0-8-3.582-8-8s3.582-8,8-8s8,3.582,8,8S85.698,441.162,81.28,441.162z"/>
    <path d="M434.56,49.162c-12.932-2.218-23.062-12.348-25.28-25.28c0-4.418-3.582-8-8-8s-8,3.582-8,8 c-2.218,12.932-12.348,23.062-25.28,25.28c-4.418,0-8,3.582-8,8s3.582,8,8,8c12.932,2.218,23.062,12.348,25.28,25.28 c0,4.418,3.582,8,8,8s8-3.582,8-8c2.218-12.932,12.348-23.062,25.28-25.28c4.418,0,8-3.582,8-8S438.978,49.162,434.56,49.162z M401.28,68.602c-3.104-4.463-6.977-8.336-11.44-11.44c4.463-3.104,8.336-6.977,11.44-11.44c3.104,4.463,6.977,8.336,11.44,11.44 C408.257,60.266,404.384,64.139,401.28,68.602z"/>
    <path d="M74.56,209.162c-12.932-2.218-23.062-12.348-25.28-25.28c0-4.418-3.582-8-8-8s-8,3.582-8,8 c-2.218,12.932-12.348,23.062-25.28,25.28c-4.418,0-8,3.582-8,8s3.582,8,8,8c12.932,2.218,23.062,12.348,25.28,25.28 c0,4.418,3.582,8,8,8s8-3.582,8-8c2.218-12.932,12.348-23.062,25.28-25.28c4.418,0,8-3.582,8-8S78.978,209.162,74.56,209.162z M41.28,228.602c-3.104-4.463-6.977-8.336-11.44-11.44c4.463-3.104,8.336-6.977,11.44-11.44c3.104,4.463,6.977,8.336,11.44,11.44 C48.257,220.266,44.384,224.139,41.28,228.602z"/>
  </svg>

  <svg id="phone" viewBox="0 0 473 473">
    <path d="M374.456,293.506c-9.7-10.1-21.4-15.5-33.8-15.5c-12.3,0-24.1,5.3-34.2,15.4l-31.6,31.5c-2.6-1.4-5.2-2.7-7.7-4 c-3.6-1.8-7-3.5-9.9-5.3c-29.6-18.8-56.5-43.3-82.3-75c-12.5-15.8-20.9-29.1-27-42.6c8.2-7.5,15.8-15.3,23.2-22.8 c2.8-2.8,5.6-5.7,8.4-8.5c21-21,21-48.2,0-69.2l-27.3-27.3c-3.1-3.1-6.3-6.3-9.3-9.5c-6-6.2-12.3-12.6-18.8-18.6 c-9.7-9.6-21.3-14.7-33.5-14.7s-24,5.1-34,14.7c-0.1,0.1-0.1,0.1-0.2,0.2l-34,34.3c-12.8,12.8-20.1,28.4-21.7,46.5 c-2.4,29.2,6.2,56.4,12.8,74.2c16.2,43.7,40.4,84.2,76.5,127.6c43.8,52.3,96.5,93.6,156.7,122.7c23,10.9,53.7,23.8,88,26 c2.1,0.1,4.3,0.2,6.3,0.2c23.1,0,42.5-8.3,57.7-24.8c0.1-0.2,0.3-0.3,0.4-0.5c5.2-6.3,11.2-12,17.5-18.1c4.3-4.1,8.7-8.4,13-12.9 c9.9-10.3,15.1-22.3,15.1-34.6c0-12.4-5.3-24.3-15.4-34.3L374.456,293.506z M410.256,398.806 C410.156,398.806,410.156,398.906,410.256,398.806c-3.9,4.2-7.9,8-12.2,12.2c-6.5,6.2-13.1,12.7-19.3,20 c-10.1,10.8-22,15.9-37.6,15.9c-1.5,0-3.1,0-4.6-0.1c-29.7-1.9-57.3-13.5-78-23.4c-56.6-27.4-106.3-66.3-147.6-115.6 c-34.1-41.1-56.9-79.1-72-119.9c-9.3-24.9-12.7-44.3-11.2-62.6c1-11.7,5.5-21.4,13.8-29.7l34.1-34.1c4.9-4.6,10.1-7.1,15.2-7.1 c6.3,0,11.4,3.8,14.6,7c0.1,0.1,0.2,0.2,0.3,0.3c6.1,5.7,11.9,11.6,18,17.9c3.1,3.2,6.3,6.4,9.5,9.7l27.3,27.3 c10.6,10.6,10.6,20.4,0,31c-2.9,2.9-5.7,5.8-8.6,8.6c-8.4,8.6-16.4,16.6-25.1,24.4c-0.2,0.2-0.4,0.3-0.5,0.5 c-8.6,8.6-7,17-5.2,22.7c0.1,0.3,0.2,0.6,0.3,0.9c7.1,17.2,17.1,33.4,32.3,52.7l0.1,0.1c27.6,34,56.7,60.5,88.8,80.8 c4.1,2.6,8.3,4.7,12.3,6.7c3.6,1.8,7,3.5,9.9,5.3c0.4,0.2,0.8,0.5,1.2,0.7c3.4,1.7,6.6,2.5,9.9,2.5c8.3,0,13.5-5.2,15.2-6.9 l34.2-34.2c3.4-3.4,8.8-7.5,15.1-7.5c6.2,0,11.3,3.9,14.4,7.3c0.1,0.1,0.1,0.1,0.2,0.2l55.1,55.1 C420.456,377.706,420.456,388.206,410.256,398.806z"/>
    <path d="M256.056,112.706c26.2,4.4,50,16.8,69,35.8s31.3,42.8,35.8,69c1.1,6.6,6.8,11.2,13.3,11.2c0.8,0,1.5-0.1,2.3-0.2 c7.4-1.2,12.3-8.2,11.1-15.6c-5.4-31.7-20.4-60.6-43.3-83.5s-51.8-37.9-83.5-43.3c-7.4-1.2-14.3,3.7-15.6,11 S248.656,111.506,256.056,112.706z"/>
    <path d="M473.256,209.006c-8.9-52.2-33.5-99.7-71.3-137.5s-85.3-62.4-137.5-71.3c-7.3-1.3-14.2,3.7-15.5,11 c-1.2,7.4,3.7,14.3,11.1,15.6c46.6,7.9,89.1,30,122.9,63.7c33.8,33.8,55.8,76.3,63.7,122.9c1.1,6.6,6.8,11.2,13.3,11.2 c0.8,0,1.5-0.1,2.3-0.2C469.556,223.306,474.556,216.306,473.256,209.006z"/>
  </svg>

  <svg id="right-arrow" viewBox="0 0 31 31">
    <path d="M21.205,5.007c-0.429-0.444-1.143-0.444-1.587,0c-0.429,0.429-0.429,1.143,0,1.571l8.047,8.047H1.111 C0.492,14.626,0,15.118,0,15.737c0,0.619,0.492,1.127,1.111,1.127h26.554l-8.047,8.032c-0.429,0.444-0.429,1.159,0,1.587 c0.444,0.444,1.159,0.444,1.587,0l9.952-9.952c0.444-0.429,0.444-1.143,0-1.571L21.205,5.007z"/>
  </svg>

  <svg id="sad-face" viewBox="0 0 512 512">
    <circle style="fill:#FFE17D;" cx="256" cy="256" r="256"/>
    <path style="fill:#7D5046;" d="M169.29,256L169.29,256c-11.402,0-20.645-9.243-20.645-20.645v-16.516 c0-11.402,9.243-20.645,20.645-20.645l0,0c11.402,0,20.645,9.243,20.645,20.645v16.516C189.935,246.757,180.692,256,169.29,256z"/>
    <path style="fill:#9C6846;" d="M169.29,198.194c-1.414,0-2.794,0.145-4.129,0.416v28.487c0,6.841,5.546,12.387,12.387,12.387 s12.387-5.546,12.387-12.387v-8.258C189.935,207.436,180.693,198.194,169.29,198.194z"/>
    <path style="fill:#7D5046;" d="M342.71,256L342.71,256c-11.402,0-20.645-9.243-20.645-20.645v-16.516 c0-11.402,9.243-20.645,20.645-20.645l0,0c11.402,0,20.645,9.243,20.645,20.645v16.516C363.355,246.757,354.112,256,342.71,256z"/>
    <path style="fill:#9C6846;" d="M342.71,198.194c-1.414,0-2.794,0.145-4.129,0.416v28.487c0,6.841,5.546,12.387,12.387,12.387 s12.387-5.546,12.387-12.387v-8.258C363.355,207.436,354.112,198.194,342.71,198.194z"/>
    <path style="fill:#AA7346;" d="M173.387,381.935c-2.5,0-5.008-0.903-6.992-2.726c-4.194-3.863-4.468-10.391-0.605-14.589 c20.952-22.77,54.669-36.363,90.177-36.363c35.524,0,69.234,13.597,90.177,36.367c3.863,4.194,3.589,10.726-0.605,14.585 c-4.185,3.863-10.726,3.601-14.589-0.609c-17.105-18.597-45.137-29.698-74.984-29.698c-29.839,0-57.871,11.101-74.984,29.702 C178.952,380.815,176.169,381.935,173.387,381.935z"/>
    <path style="fill:#FFD164;" d="M293.161,474.839c-141.385,0-256-114.615-256-256c0-61.227,21.521-117.411,57.376-161.463 C36.863,104.316,0,175.842,0,256c0,141.385,114.615,256,256,256c80.159,0,151.685-36.864,198.626-94.538 C410.573,453.317,354.389,474.839,293.161,474.839z"/>
  </svg>

  <svg id="search" viewBox="0 0 512 512">
    <path d="M310,190c-5.52,0-10,4.48-10,10s4.48,10,10,10c5.52,0,10-4.48,10-10S315.52,190,310,190z"/>
    <path d="M500.281,443.719l-133.48-133.48C388.546,277.485,400,239.555,400,200C400,89.72,310.28,0,200,0S0,89.72,0,200 s89.72,200,200,200c39.556,0,77.486-11.455,110.239-33.198l36.895,36.895c0.005,0.005,0.01,0.01,0.016,0.016l96.568,96.568 C451.276,507.838,461.319,512,472,512c10.681,0,20.724-4.162,28.278-11.716C507.837,492.731,512,482.687,512,472 S507.837,451.269,500.281,443.719z M305.536,345.727c0,0.001-0.001,0.001-0.002,0.002C274.667,368.149,238.175,380,200,380 c-99.252,0-180-80.748-180-180S100.748,20,200,20s180,80.748,180,180c0,38.175-11.851,74.667-34.272,105.535 C334.511,320.988,320.989,334.511,305.536,345.727z M326.516,354.793c10.35-8.467,19.811-17.928,28.277-28.277l28.371,28.371 c-8.628,10.183-18.094,19.65-28.277,28.277L326.516,354.793z M486.139,486.139c-3.78,3.78-8.801,5.861-14.139,5.861 s-10.359-2.081-14.139-5.861l-88.795-88.795c10.127-8.691,19.587-18.15,28.277-28.277l88.798,88.798 C489.919,461.639,492,466.658,492,472C492,477.342,489.919,482.361,486.139,486.139z"/>
    <path d="M200,40c-88.225,0-160,71.775-160,160s71.775,160,160,160s160-71.775,160-160S288.225,40,200,40z M200,340 c-77.196,0-140-62.804-140-140S122.804,60,200,60s140,62.804,140,140S277.196,340,200,340z"/>
    <path d="M312.065,157.073c-8.611-22.412-23.604-41.574-43.36-55.413C248.479,87.49,224.721,80,200,80c-5.522,0-10,4.478-10,10 c0,5.522,4.478,10,10,10c41.099,0,78.631,25.818,93.396,64.247c1.528,3.976,5.317,6.416,9.337,6.416 c1.192,0,2.405-0.215,3.584-0.668C311.472,168.014,314.046,162.229,312.065,157.073z"/>
  </svg>

  <svg id="upload" viewBox="0 0 548 548">
    <path d="M524.326,297.352c-15.896-19.89-36.21-32.782-60.959-38.684c7.81-11.8,11.704-24.934,11.704-39.399 c0-20.177-7.139-37.401-21.409-51.678c-14.273-14.272-31.498-21.411-51.675-21.411c-18.083,0-33.879,5.901-47.39,17.703 c-11.225-27.41-29.171-49.393-53.817-65.95c-24.646-16.562-51.818-24.842-81.514-24.842c-40.349,0-74.802,14.279-103.353,42.83 c-28.553,28.544-42.825,62.999-42.825,103.351c0,2.474,0.191,6.567,0.571,12.275c-22.459,10.469-40.349,26.171-53.676,47.106 C6.661,299.594,0,322.43,0,347.179c0,35.214,12.517,65.329,37.544,90.358c25.028,25.037,55.15,37.548,90.362,37.548h310.636 c30.259,0,56.096-10.711,77.512-32.12c21.413-21.409,32.121-47.246,32.121-77.516C548.172,339.944,540.223,317.248,524.326,297.352 z M362.729,289.648c-1.813,1.804-3.949,2.707-6.42,2.707h-63.953v100.502c0,2.471-0.903,4.613-2.711,6.42 c-1.813,1.813-3.949,2.711-6.42,2.711h-54.826c-2.474,0-4.615-0.897-6.423-2.711c-1.804-1.807-2.712-3.949-2.712-6.42V292.355 H155.31c-2.662,0-4.853-0.855-6.563-2.563c-1.713-1.714-2.568-3.904-2.568-6.566c0-2.286,0.95-4.572,2.852-6.855l100.213-100.21 c1.713-1.714,3.903-2.57,6.567-2.57c2.666,0,4.856,0.856,6.567,2.57l100.499,100.495c1.714,1.712,2.562,3.901,2.562,6.571 C365.438,285.696,364.535,287.845,362.729,289.648z"/>
  </svg>

  <svg id="whatsapp" viewBox="0 0 512 512">
    <path d="m439.277344 72.722656c-46.898438-46.898437-109.238282-72.722656-175.566406-72.722656-.003907 0-.019532 0-.023438 0-32.804688.00390625-64.773438 6.355469-95.011719 18.882812-30.242187 12.527344-57.335937 30.640626-80.535156 53.839844-46.894531 46.894532-72.71875 109.246094-72.71875 175.566406 0 39.550782 9.542969 78.855469 27.625 113.875l-41.734375 119.226563c-2.941406 8.410156-.859375 17.550781 5.445312 23.851563 4.410157 4.414062 10.214844 6.757812 16.183594 6.757812 2.558594 0 5.144532-.429688 7.667969-1.3125l119.226563-41.730469c35.019531 18.082031 74.324218 27.625 113.875 27.625 66.320312 0 128.667968-25.828125 175.566406-72.722656 46.894531-46.894531 72.722656-109.246094 72.722656-175.566406 0-66.324219-25.824219-128.675781-72.722656-175.570313zm-21.234375 329.902344c-41.222657 41.226562-96.035157 63.925781-154.332031 63.925781-35.664063 0-71.09375-8.820312-102.460938-25.515625-5.6875-3.023437-12.410156-3.542968-18.445312-1.429687l-108.320313 37.910156 37.914063-108.320313c2.113281-6.042968 1.589843-12.765624-1.433594-18.449218-16.691406-31.359375-25.515625-66.789063-25.515625-102.457032 0-58.296874 22.703125-113.109374 63.925781-154.332031 41.21875-41.21875 96.023438-63.921875 154.316406-63.929687h.019532c58.300781 0 113.109374 22.703125 154.332031 63.929687 41.226562 41.222657 63.929687 96.03125 63.929687 154.332031 0 58.300782-22.703125 113.113282-63.929687 154.335938zm0 0"/><path d="m355.984375 270.46875c-11.421875-11.421875-30.007813-11.421875-41.429687 0l-12.492188 12.492188c-31.019531-16.902344-56.121094-42.003907-73.027344-73.023438l12.492188-12.492188c11.425781-11.421874 11.425781-30.007812 0-41.429687l-33.664063-33.664063c-11.421875-11.421874-30.007812-11.421874-41.429687 0l-26.929688 26.929688c-15.425781 15.425781-16.195312 41.945312-2.167968 74.675781 12.179687 28.417969 34.46875 59.652344 62.761718 87.945313 28.292969 28.292968 59.527344 50.582031 87.945313 62.761718 15.550781 6.664063 29.695312 9.988282 41.917969 9.988282 13.503906 0 24.660156-4.058594 32.757812-12.15625l26.929688-26.933594v.003906c5.535156-5.535156 8.582031-12.890625 8.582031-20.714844 0-7.828124-3.046875-15.183593-8.582031-20.714843zm-14.5 80.792969c-4.402344 4.402343-17.941406 5.945312-41.609375-4.195313-24.992188-10.710937-52.886719-30.742187-78.542969-56.398437s-45.683593-53.546875-56.394531-78.539063c-10.144531-23.667968-8.601562-37.210937-4.199219-41.613281l26.414063-26.414063 32.625 32.628907-15.636719 15.640625c-7.070313 7.070312-8.777344 17.792968-4.242187 26.683594 20.558593 40.3125 52.734374 72.488281 93.046874 93.046874 8.894532 4.535157 19.617188 2.832032 26.6875-4.242187l15.636719-15.636719 32.628907 32.628906zm0 0"/>
  </svg>

  <svg id="world" viewBox="0 0 480 480">
    <path d="M240.135,0.05C144.085,0.036,57.277,57.289,19.472,145.586l-2.992,0.992l1.16,3.48c-49.776,122.766,9.393,262.639,132.159,312.415c28.673,11.626,59.324,17.594,90.265,17.577c132.548,0.02,240.016-107.416,240.036-239.964S372.684,0.069,240.135,0.05z M428.388,361.054l-12.324-12.316V320.05c0.014-1.238-0.26-2.462-0.8-3.576l-31.2-62.312V224.05c0-2.674-1.335-5.172-3.56-6.656l-24-16c-1.881-1.256-4.206-1.657-6.4-1.104l-29.392,7.344l-49.368-21.184l-6.792-47.584l18.824-18.816h40.408l13.6,20.44c1.228,1.838,3.163,3.087,5.344,3.448l48,8c1.286,0.216,2.604,0.111,3.84-0.304l44.208-14.736C475.855,208.053,471.889,293.634,428.388,361.054z M395.392,78.882l-13.008,8.672l-36.264-7.256l-23.528-7.832c-1.44-0.489-2.99-0.551-4.464-0.176l-29.744,7.432l-13.04-4.344l9.664-19.328h27.056c1.241,0.001,2.465-0.286,3.576-0.84l27.68-13.84C362.382,51.32,379.918,63.952,395.392,78.882z M152.44,33.914l19.2,12.8c0.944,0.628,2.01,1.048,3.128,1.232l38.768,6.464l-3.784,11.32l-20.2,6.744c-1.809,0.602-3.344,1.83-4.328,3.464l-22.976,38.288l-36.904,22.144l-54.4,7.768c-3.943,0.557-6.875,3.93-6.88,7.912v24c0,2.122,0.844,4.156,2.344,5.656l13.656,13.656v13.744l-33.28-22.192l-12.072-36.216C57.68,98.218,99.777,56.458,152.44,33.914z M129.664,296.21l-36.16-7.24l-13.44-26.808v-18.8l29.808-29.808l11.032,22.072c1.355,2.712,4.128,4.425,7.16,4.424h51.472l21.672,36.12c1.446,2.407,4.048,3.879,6.856,3.88h22.24l-5.6,28.056l-30.288,30.288c-1.503,1.499-2.349,3.533-2.352,5.656v20l-28.8,21.6c-2.014,1.511-3.2,3.882-3.2,6.4v28.896l-9.952-3.296l-14.048-35.136V304.05C136.065,300.248,133.389,296.97,129.664,296.21z M105.616,419.191C30.187,362.602-1.712,264.826,25.832,174.642l6.648,19.936c0.56,1.687,1.666,3.14,3.144,4.128l39.88,26.584l-9.096,9.104c-1.5,1.5-2.344,3.534-2.344,5.656v24c-0.001,1.241,0.286,2.465,0.84,3.576l16,32c1.108,2.21,3.175,3.784,5.6,4.264l33.6,6.712v73.448c-0.001,1.016,0.192,2.024,0.568,2.968l16,40c0.876,2.185,2.67,3.874,4.904,4.616l24,8c0.802,0.272,1.642,0.412,2.488,0.416c4.418,0,8-3.582,8-8v-36l28.8-21.6c2.014-1.511,3.2-3.882,3.2-6.4v-20.688l29.656-29.656c1.115-1.117,1.875-2.54,2.184-4.088l8-40c0.866-4.333-1.944-8.547-6.277-9.413c-0.515-0.103-1.038-0.155-1.563-0.155h-27.472l-21.672-36.12c-1.446-2.407-4.048-3.879-6.856-3.88h-51.056l-13.744-27.576c-1.151-2.302-3.339-3.91-5.88-4.32c-2.54-0.439-5.133,0.399-6.936,2.24l-10.384,10.344V192.05c0-2.122-0.844-4.156-2.344-5.656l-13.656-13.656v-13.752l49.136-7.016c1.055-0.153,2.07-0.515,2.984-1.064l40-24c1.122-0.674,2.062-1.614,2.736-2.736l22.48-37.464l21.192-7.072c2.393-0.785,4.271-2.662,5.056-5.056l8-24c1.386-4.195-0.891-8.72-5.086-10.106c-0.387-0.128-0.784-0.226-1.186-0.294l-46.304-7.72l-8.136-5.424c50.343-16.386,104.869-14.358,153.856,5.72l-14.616,7.296h-30.112c-3.047-0.017-5.838,1.699-7.2,4.424l-16,32c-1.971,3.954-0.364,8.758,3.59,10.729c0.337,0.168,0.685,0.312,1.042,0.431l24,8c1.44,0.489,2.99,0.551,4.464,0.176l29.744-7.432l21.792,7.256c0.312,0.112,0.633,0.198,0.96,0.256l40,8c2.08,0.424,4.244-0.002,6.008-1.184l18.208-12.144c8.961,9.981,17.014,20.741,24.064,32.152l-39.36,13.12l-42.616-7.104l-14.08-21.12c-1.476-2.213-3.956-3.547-6.616-3.56h-48c-2.122,0-4.156,0.844-5.656,2.344l-24,24c-1.782,1.781-2.621,4.298-2.264,6.792l8,56c0.403,2.769,2.223,5.126,4.8,6.216l56,24c1.604,0.695,3.394,0.838,5.088,0.408l28.568-7.144l17.464,11.664v27.72c-0.014,1.238,0.26,2.462,0.8,3.576l31.2,62.312v30.112c0,2.122,0.844,4.156,2.344,5.656l16.736,16.744C344.921,473.383,204.549,493.415,105.616,419.191z"/>
  </svg>

  <svg id="clouds" viewBox="0 0 512 512">
    <path style="fill:#9FDEF7;" d="M155.968,187.07h38.254c14.29-26.216,38.712-46.094,68.024-54.357 c-5.897-14.318-19.979-24.397-36.419-24.397c-4.11,0-8.069,0.633-11.79,1.798c0.02-0.598,0.046-1.195,0.046-1.798 c0-29.244-23.714-52.956-52.96-52.956c-25.223,0-46.309,17.632-51.642,41.239c-3.168-1.056-6.548-1.634-10.069-1.634 c-10.834,0-20.398,5.424-26.133,13.703c-3.2-0.825-6.56-1.272-10.019-1.272c-22,0-39.834,17.835-39.834,39.836 c0,21.997,17.835,39.836,39.834,39.836h63.687"/>
    <path style="fill:#BEEAFC;" d="M373.536,162.958c-20.468-21.893-49.607-35.578-81.941-35.578c-53.408,0-98.066,37.345-109.362,87.34 c-6.704-2.236-13.865-3.466-21.318-3.466c-22.947,0-43.196,11.49-55.341,29.022c-6.779-1.751-13.888-2.692-21.216-2.692 C37.768,237.584,0,275.352,0,321.942c0,46.588,37.768,84.361,84.358,84.361h93.011c0.196-28.675,23.489-51.858,52.206-51.858 c5.446,0,10.697,0.835,15.633,2.382c-0.023-0.79-0.059-1.582-0.059-2.382c0-38.787,31.442-70.23,70.228-70.23 c33.443,0,61.41,23.387,68.483,54.691c4.197-1.401,8.678-2.17,13.346-2.17c14.368,0,27.051,7.194,34.655,18.175 c4.245-1.098,8.696-1.688,13.284-1.688c19.231,0,36.057,10.279,45.295,25.637c13.396-14.793,21.557-34.414,21.557-55.94 c0-46.056-37.332-83.384-83.384-83.384c-8.696,0-17.08,1.333-24.963,3.803c0.041-1.263,0.096-2.529,0.096-3.803 c0-18.832-4.641-36.579-12.845-52.163"/>
    <path style="fill:#AEE4FF;" d="M89.442,237.74c-1.682-0.102-3.376-0.157-5.084-0.157C37.768,237.582,0,275.351,0,321.941 c0,46.588,37.768,84.361,84.358,84.361h93.011c0.061-8.998,2.4-17.454,6.464-24.823C137.844,346.086,103.961,295.755,89.442,237.74z "/>
    <path style="fill:#83D4ED;" d="M81.614,174.026c0-27.362,4.208-53.738,11.999-78.528c-8.402,1.551-15.646,6.407-20.333,13.171 c-3.2-0.825-6.56-1.272-10.019-1.272c-22,0-39.834,17.835-39.834,39.836c0,21.997,17.835,39.836,39.834,39.836h18.678 C81.727,182.747,81.614,178.4,81.614,174.026z"/>
    <path style="fill:#E4F2F9;" d="M445.146,350.991c-4.588,0-9.041,0.588-13.284,1.688c-7.604-10.982-20.287-18.175-34.655-18.175 c-4.668,0-9.149,0.769-13.346,2.17c-7.074-31.305-35.04-54.691-68.483-54.691c-38.786,0-70.228,31.443-70.228,70.23 c0,0.8,0.035,1.592,0.059,2.382c-4.936-1.547-10.187-2.382-15.633-2.382c-28.835,0-52.212,23.373-52.212,52.216 c0,28.835,23.378,52.21,52.212,52.21h156.329h29.013h30.23c29.175,0,52.827-23.651,52.827-52.824 C497.973,374.64,474.321,350.991,445.146,350.991z"/>
    <path style="fill:#D7EDF9;" d="M285.258,337.525c0-18.847,4-36.758,11.185-52.941c-29.585,8.267-51.295,35.403-51.295,67.627 c0,0.8,0.035,1.592,0.059,2.382c-4.936-1.547-10.187-2.382-15.633-2.382c-28.835,0-52.212,23.373-52.212,52.216 c0,28.835,23.378,52.21,52.212,52.21h132.677C316.86,436.184,285.258,390.545,285.258,337.525z"/>
  </svg>

  <svg id="house-balloons" viewBox="0 0 463 463">
    <path d="m159.363281 126.261719 5.117188 25.679687h-32l5.121093-25.679687c7.210938 1.121093 14.550782 1.121093 21.761719 0zm0 0" fill="#ff5023"/>
    <path d="m228.480469 330.660156v125.28125c0 4.417969-3.578125 8-8 8h-144c-4.417969 0-8-3.582031-8-8v-125.28125l80-58.71875zm0 0" fill="#ffc477"/>
    <path d="m172.480469 399.941406h32v32h-32zm0 0" fill="#e6e7e8"/>
    <path d="m100.480469 399.941406h48v64h-48zm0 0" fill="#8b5e3c"/>
    <path d="m172.480469 343.941406c0 13.253906-10.742188 24-24 24-13.253907 0-24-10.746094-24-24s10.746093-24 24-24c13.257812 0 24 10.746094 24 24zm0 0" fill="#ffd422"/>
    <path d="m214.722656 146.902344-8.398437 24.800781-13.84375-8-13.839844-8 17.28125-19.679687c5.671875 4.566406 12.015625 8.234374 18.800781 10.878906zm0 0" fill="#ffcd00"/>
    <path d="m101.042969 136.023438 17.28125 19.679687-13.84375 8-13.839844 8-8.398437-24.800781c6.785156-2.644532 13.125-6.3125 18.800781-10.878906zm0 0" fill="#00b39d"/>
    <path d="m202.082031 39.78125c1.625 5.230469 2.433594 10.683594 2.398438 16.160156-.722657 19.6875-8.144531 38.542969-21.039063 53.441406-6.3125 7.742188-14.644531 13.585938-24.078125 16.878907-7.082031 2.238281-14.679687 2.238281-21.761719 0-9.433593-3.292969-17.765624-9.136719-24.078124-16.878907-12.894532-14.898437-20.316407-33.753906-21.042969-53.441406-.03125-5.476562.777343-10.929687 2.402343-16.160156 7.148438-23.621094 28.917969-39.78125 53.597657-39.78125 24.683593 0 46.453125 16.160156 53.601562 39.78125zm0 0" fill="#ff6243"/>
    <path d="m268.480469 32.101562c12.875 7.410157 22.269531 19.640626 26.113281 33.988282 3.84375 14.351562 1.816406 29.640625-5.632812 42.492187-13.597657 23.597657-47.917969 44.238281-74.238282 38.320313-7.265625-1.53125-13.855468-5.34375-18.800781-10.878906-6.53125-7.5625-10.851563-16.78125-12.480469-26.640626 12.894532-14.898437 20.316406-33.753906 21.039063-53.441406.035156-5.476562-.773438-10.929687-2.398438-16.160156 18.027344-16.902344 44.992188-20.019531 66.398438-7.679688zm0 0" fill="#ffd422"/>
    <path d="m82.242188 146.902344c-26.320313 5.917968-60.640626-14.722656-74.238282-38.320313-13.925781-24.0625-8.0937498-54.695312 13.703125-71.953125 21.792969-17.257812 52.945313-15.914062 73.175781 3.152344-1.625 5.230469-2.433593 10.683594-2.402343 16.160156.726562 19.6875 8.148437 38.542969 21.042969 53.441406-1.628907 9.859376-5.949219 19.078126-12.480469 26.640626-4.949219 5.535156-11.535157 9.347656-18.800781 10.878906zm0 0" fill="#00ccb3"/>
    <path d="m156.480469 277.78125-72 52.878906-16 11.761719v-11.761719l80-58.71875zm0 0" fill="#ffb655"/>
    <path d="m172.480469 399.941406h16v32h-16zm0 0" fill="#d1d3d4"/>
    <g fill="#754c29">
      <path d="m100.480469 399.941406h16v64h-16zm0 0"/>
      <path d="m100.480469 399.941406h48v8h-48zm0 0"/>
      <path d="m204.480469 439.941406h-32c-4.417969 0-8-3.582031-8-8v-32c0-4.417968 3.582031-8 8-8h32c4.421875 0 8 3.582032 8 8v32c0 4.417969-3.578125 8-8 8zm-24-16h16v-16h-16zm0 0"/>
    </g>
    <path d="m141.5625 235.949219 43.992188-76.214844 13.855468 8-43.992187 76.214844zm0 0" fill="#ebbf00"/>
    <path d="m97.550781 167.730469 13.859375-8 44 76.210937-13.859375 8zm0 0" fill="#00665a"/>
    <path d="m140.480469 151.941406h16v96h-16zm0 0" fill="#cd2a00"/>
    <path d="m279.203125 339.621094c-.007813 5.394531-3.046875 10.328125-7.863281 12.761718-4.816406 2.433594-10.589844 1.953126-14.9375-1.242187l-27.921875-20.480469-80-58.71875-80 58.71875-27.917969 20.480469c-2.445312 1.765625-5.382812 2.714844-8.398438 2.722656-4.796874-.003906-9.285156-2.367187-12-6.320312-4.253906-6.460938-2.628906-15.125 3.679688-19.601563l124.636719-88 124.640625 88c3.792968 2.683594 6.058594 7.035156 6.082031 11.679688zm0 0" fill="#ff6243"/>
  </svg>

  <svg id="house-fire" viewBox="0 -10 512 512">
    <path d="m75.546875 29.597656h55.941406v101.414063h-55.941406zm0 0" fill="#912c2c"/>
    <path d="m143.777344 42.484375h-80.519532c-7.804687 0-14.128906-6.328125-14.128906-14.128906v-14.226563c0-7.804687 6.324219-14.128906 14.128906-14.128906h80.519532c7.804687 0 14.132812 6.324219 14.132812 14.128906v14.222656c-.003906 7.804688-6.328125 14.132813-14.132812 14.132813zm0 0" fill="#fc4e51"/>
    <path d="m445.960938 465.328125h-379.921876v-310.152344l189.960938-120.253906 189.960938 120.253906zm0 0" fill="#e7eced"/>
    <path d="m256 34.921875-45.863281 29.035156 163.324219 103.390625c4.863281 3.082032 7.808593 8.433594 7.808593 14.191406v283.789063h64.691407v-310.152344zm0 0" fill="#d8d8d8"/>
    <path d="m251.992188 9.050781-241.726563 153.023438c-6.390625 4.046875-10.265625 11.082031-10.265625 18.648437 0 17.390625 19.179688 27.949219 33.875 18.644532l218.117188-138.078126c2.445312-1.550781 5.566406-1.550781 8.015624 0l218.117188 138.078126c14.695312 9.304687 33.875-1.253907 33.875-18.644532 0-7.5625-3.875-14.601562-10.265625-18.648437l-241.726563-153.023438c-2.449218-1.550781-5.566406-1.550781-8.015624 0zm0 0" fill="#fc4e51"/>
    <path d="m245.058594 458.527344h-126.140625v-186.378906c0-6.503907 5.269531-11.773438 11.769531-11.773438h102.597656c6.5 0 11.769532 5.269531 11.769532 11.773438v186.378906zm0 0" fill="#912c2c"/>
    <path d="m389.875 341.539062h-90.914062c-5.351563 0-9.6875-4.335937-9.6875-9.6875v-61.789062c0-5.351562 4.339843-9.6875 9.6875-9.6875h90.914062c5.351562 0 9.6875 4.339844 9.6875 9.6875v61.789062c0 5.351563-4.335938 9.6875-9.6875 9.6875zm0 0" fill="#69e6ed"/>
    <path d="m207.683594 385.191406c-4.269532 0-7.726563-3.457031-7.726563-7.722656v-35.925781c0-4.269531 3.460938-7.726563 7.726563-7.726563 4.269531 0 7.726562 3.457032 7.726562 7.726563v35.925781c0 4.265625-3.457031 7.722656-7.726562 7.722656zm0 0" fill="#d8d8d8"/>
    <path d="m491.390625 491.210938h-470.78125c-11.382813 0-20.609375-9.226563-20.609375-20.609376 0-11.382812 9.226562-20.609374 20.609375-20.609374h470.78125c11.382813 0 20.609375 9.226562 20.609375 20.609374 0 11.382813-9.226562 20.609376-20.609375 20.609376zm0 0" fill="#7bb72e"/>
    <path d="m394.898438 488.171875c9.828124 3.957031 20.785156 4.054687 30.6875.289063 26.554687-10.101563 78.828124-35.535157 85.6875-81.074219 4.578124-30.371094-13.628907-55.902344-22.445313-66.230469-1.84375-2.15625-5.332031-1.382812-6.097656 1.351562-9.828125 34.992188-34.703125 58.714844-38.972657 44.820313-6.832031-22.238281 31.273438-43.359375 7.882813-98.085937-11.003906-25.742188-41.792969-35.042969-55.320313-37.953126-2.691406-.578124-4.996093 2.023438-4.074218 4.613282 3.433594 9.683594 8.027344 30.3125-3.855469 52.527344-22.035156 41.1875-57.488281 36.238281-67.691406 89.851562-9.445313 49.625 46.226562 78.621094 74.199219 89.890625zm0 0" fill="#fccf3f"/>
    <path d="m451.636719 289.242188c-11-25.742188-41.789063-35.042969-55.320313-37.953126-2.6875-.578124-4.992187 2.023438-4.070312 4.613282 3.433594 9.683594 8.027344 30.3125-3.855469 52.527344-.332031.621093-.671875 1.230468-1.007813 1.832031 12.953126 8.101562 26.207032 19.480469 35.085938 35.359375 4.457031 7.972656 15.421875 21.105468 20.582031 38.277344-2.363281-21.070313 30.773438-42.746094 8.585938-94.65625zm0 0" fill="#f2bc25"/>
    <path d="m488.828125 341.15625c-1.84375-2.15625-5.332031-1.382812-6.097656 1.351562-9.492188 33.792969-33.015625 57.070313-38.460938 46.105469 1.570313 7.140625 1.863281 15.125.640625 23.238281-5.175781 34.375-36.230468 57.289063-62.566406 70.804688 4.535156 2.164062 8.796875 4 12.554688 5.515625 9.828124 3.957031 20.785156 4.054687 30.6875.289063 26.550781-10.101563 78.824218-35.535157 85.6875-81.074219 4.578124-30.371094-13.628907-55.902344-22.445313-66.230469zm0 0" fill="#f2bc25"/>
    <path d="m462.722656 435.582031c-3.25-4.824219-.988281 3.359375-17.882812 5.65625-23.035156 3.125-42.722656-25.628906-42.515625-42.964843.054687-4.722657-5.320313-7.449219-9.105469-4.621094-10 7.46875-25.144531 20.855468-32.53125 37.820312-5.652344 12.976563-3.011719 26.320313 1.957031 40.378906 11.5625 7.308594 23.320313 12.71875 32.253907 16.316407 9.828124 3.960937 20.785156 4.058593 30.6875.289062 9.335937-3.550781 21.847656-8.996093 34.445312-16.546875 5.421875-14.613281 8.007812-28.441406 2.691406-36.328125zm0 0" fill="#fc4e51"/>
    <path d="m460.03125 471.914062c5.421875-14.617187 8.007812-28.445312 2.691406-36.335937-3.25-4.820313-.988281 3.363281-17.882812 5.65625-3.832032.523437-7.570313.144531-11.140625-.902344-12.601563 19.074219-33.105469 32.957031-51.351563 42.324219.085938.039062.171875.082031.261719.121094 2.089844.996094 4.121094 1.917968 6.070313 2.773437.136718.058594.277343.121094.414062.183594.929688.402344 1.839844.792969 2.726562 1.167969.152344.0625.300782.125.453126.1875.890624.371094 1.765624.730468 2.609374 1.070312.003907.003906.011719.003906.015626.007813 9.832031 3.960937 20.785156 4.058593 30.6875.289062 9.335937-3.550781 21.84375-8.996093 34.445312-16.542969zm0 0" fill="#e5394b"/>
  </svg>

  <svg id="dots" viewBox="0 0 512 512">
    <circle cx="256" cy="64" r="64"/>
    <circle cx="256" cy="256" r="64"/>
    <circle cx="256" cy="448" r="64"/>
  </svg>

  <svg id="lot" viewBox="0 0 512 512">
    <polygon style="fill:#CB8252;" points="35.31,123.586 35.31,211.862 35.31,300.138 35.31,388.414 256,512 476.69,388.414  476.69,300.138 476.69,211.862 476.69,123.586   "/>
    <polygon style="fill:#805333;" points="476.69,211.862 476.69,300.138 256,423.724 256,335.448"/>
    <polygon style="fill:#CC6F56;" points="256,247.172 256,335.448 35.31,211.862 35.31,123.586 45.462,129.236 132.326,177.876  136.563,180.259 176.552,202.681 182.29,205.859 215.658,224.574 220.513,227.31    "/>
    <polygon style="fill:#CC6F56;" points="256,423.724 256,512 35.31,388.414 35.31,300.138"/>
    <polygon style="fill:#804537;" points="256,335.448 256,423.724 35.31,300.138 35.31,211.862"/>
    <polygon style="fill:#BDC3C7;" points="476.69,123.586 256,247.172 220.513,227.31 215.658,224.574 182.29,205.859  176.552,202.681 136.563,180.259 132.326,177.876 45.462,129.236 35.31,123.586 256,0   "/>
    <path style="fill:#ECF0F1;" d="M97.103,132.414c-2.348,0.023-4.607-0.9-6.267-2.56c-1.66-1.66-2.583-3.919-2.56-6.267 c0-4.875,3.952-8.828,8.828-8.828s8.828,3.952,8.828,8.828c0.03,1.158-0.212,2.306-0.707,3.353 c-0.45,1.068-1.077,2.053-1.854,2.914c-0.859,0.779-1.844,1.406-2.914,1.854C99.396,132.16,98.257,132.4,97.103,132.414z"/>
    <path style="fill:#ECF0F1;" d="M150.069,158.897c-2.341,0.001-4.587-0.929-6.243-2.585c-1.656-1.656-2.585-3.901-2.585-6.243 V97.103c0-4.875,3.952-8.828,8.828-8.828c4.875,0,8.828,3.952,8.828,8.828v52.966c0.001,2.341-0.929,4.587-2.585,6.243 C154.656,157.967,152.41,158.897,150.069,158.897z"/>
    <path style="fill:#ECF0F1;" d="M203.034,185.379c-2.341,0.001-4.587-0.929-6.243-2.585c-1.656-1.656-2.585-3.901-2.585-6.243 V70.621c0-4.875,3.952-8.828,8.828-8.828s8.828,3.952,8.828,8.828v105.931c0.001,2.341-0.929,4.587-2.585,6.243 C207.622,184.45,205.376,185.38,203.034,185.379z"/>
    <path style="fill:#ECF0F1;" d="M414.897,132.414c-2.952,0.028-5.72-1.436-7.358-3.892c-1.638-2.456-1.927-5.573-0.767-8.289 c0.427-1.081,1.058-2.07,1.857-2.914c2.063-2.143,5.078-3.084,7.994-2.493c2.916,0.59,5.327,2.63,6.394,5.407 c1.163,2.714,0.876,5.832-0.762,8.289C420.617,130.979,417.849,132.443,414.897,132.414z"/>
    <path style="fill:#ECF0F1;" d="M361.931,158.897c-2.341,0.001-4.587-0.929-6.243-2.585c-1.656-1.656-2.585-3.901-2.585-6.243 V97.103c0-4.875,3.952-8.828,8.828-8.828s8.828,3.952,8.828,8.828v52.966c0.001,2.341-0.929,4.587-2.585,6.243 C366.518,157.967,364.272,158.897,361.931,158.897z"/>
    <path style="fill:#ECF0F1;" d="M308.966,185.379c-2.341,0.001-4.587-0.929-6.243-2.585c-1.656-1.656-2.585-3.901-2.585-6.243 V70.621c0-4.875,3.952-8.828,8.828-8.828s8.828,3.952,8.828,8.828v105.931c0.001,2.341-0.929,4.587-2.585,6.243 C313.553,184.45,311.307,185.38,308.966,185.379z"/>
    <path style="fill:#ECF0F1;" d="M256,211.862c-2.341,0.001-4.587-0.929-6.243-2.585c-1.656-1.656-2.585-3.901-2.585-6.243V44.138 c0-4.875,3.952-8.828,8.828-8.828s8.828,3.952,8.828,8.828v158.897c0.001,2.341-0.929,4.587-2.585,6.243 C260.587,210.933,258.341,211.863,256,211.862z"/>
  </svg>

  <svg id="house" viewBox="0 0 512.001 512.001">
    <polyline style="fill:#C97523;" points="131.202,348.955 131.202,455.833 86.363,455.833 86.363,348.938 "/>
    <polyline style="fill:#A85613;" points="106.363,348.955 106.363,455.833 86.363,455.833 86.363,348.938 "/>
    <ellipse style="fill:#8CC928;" cx="108.782" cy="201.393" rx="108.782" ry="171.015"/>
    <path style="fill:#82B20B;" d="M108.782,372.411C48.698,372.411,0,295.84,0,201.396S48.698,30.381,108.782,30.381 c-26.601,0-48.155,76.571-48.155,171.015S82.181,372.411,108.782,372.411z"/>
    <polygon style="fill:#E9EAEF;" points="468.698,263.882 468.698,481.621 183.04,481.621 183.04,263.882 326.674,124.549 "/>
    <polyline style="fill:#9EB1B7;" points="398.802,187.006 398.802,146.786 470.217,146.786 470.217,255.017 "/>
    <polyline style="fill:#879BA0;" points="398.802,187.006 398.802,146.786 415.953,146.786 415.953,255.017 "/>
    <path style="fill:#85C10D;" d="M354.204,435.996h143.137c8.096,0,14.66,6.563,14.66,14.66v30.967H339.544v-30.967 C339.544,442.559,346.107,435.996,354.204,435.996z"/>
    <path style="fill:#85C10D;" d="M14.66,435.996h166.026c8.096,0,14.66,6.563,14.66,14.66v30.967H0v-30.967 C0,442.559,6.563,435.996,14.66,435.996z"/>
    <polygon style="fill:#D2D4D8;" points="468.698,272.43 468.698,313.129 325.869,176.757 183.04,313.129 183.04,272.43  314.525,147.203 325.869,136.666 337.204,147.203 "/>
    <polygon style="fill:#EA4756;" points="325.865,154.108 163.246,309.368 140.507,290.279 314.527,124.549 325.865,114.017  337.205,124.549 511.225,290.279 488.486,309.368 "/>
    <rect x="217.982" y="318.486" style="fill:#C97523;" width="94.204" height="163.132"/>
    <path style="fill:#8E480E;" d="M318.971,481.621h-13.556V325.262h-80.65v156.359h-13.556V318.484c0-3.744,3.034-6.778,6.778-6.778 h94.207c3.744,0,6.778,3.034,6.778,6.778V481.621z"/>
    <rect x="339.549" y="318.486" style="fill:#A0D9F2;" width="107.281" height="94.204"/>
    <rect x="339.549" y="318.486" style="fill:#C97523;" width="107.281" height="28.626"/>
    <path style="fill:#8E480E;" d="M446.822,419.47H339.544c-3.744,0-6.778-3.034-6.778-6.778v-94.206c0-3.744,3.034-6.778,6.778-6.778 h107.279c3.744,0,6.778,3.034,6.778,6.778v94.206C453.6,416.434,450.566,419.47,446.822,419.47z M346.322,405.914h93.723v-80.65 h-93.723V405.914z"/>
    <path style="fill:#8E480E;" d="M291.023,406.308h-13.674c-3.744,0-6.778-3.034-6.778-6.778s3.034-6.778,6.778-6.778h13.674 c3.744,0,6.778,3.034,6.778,6.778S294.766,406.308,291.023,406.308z"/>
    <circle style="fill:#413740;" cx="325.868" cy="245.69" r="26.205"/>
    <rect x="339.549" y="340.332" style="fill:#8E480E;" width="107.281" height="13.556"/>
    <path style="fill:#EA4756;" d="M325.869,278.679c-18.189,0-32.987-14.798-32.987-32.987s14.797-32.987,32.987-32.987 s32.988,14.798,32.988,32.987C358.856,263.881,344.058,278.679,325.869,278.679z M325.869,226.261 c-10.713,0-19.431,8.717-19.431,19.431s8.717,19.431,19.431,19.431s19.432-8.717,19.432-19.431S336.583,226.261,325.869,226.261z"/>
    <path style="fill:#85C10D;" d="M46.925,449.03c-4.32,0-7.821-3.502-7.821-7.821v-19.787c0-4.319,3.501-7.821,7.821-7.821 s7.821,3.502,7.821,7.821v19.787C54.746,445.529,51.244,449.03,46.925,449.03z"/>
    <path style="fill:#85C10D;" d="M21.803,449.03c-4.32,0-7.821-3.502-7.821-7.821v-19.787c0-4.319,3.501-7.821,7.821-7.821 s7.821,3.502,7.821,7.821v19.787C29.624,445.529,26.123,449.03,21.803,449.03z"/>
    <path style="fill:#85C10D;" d="M157.12,449.03c-4.32,0-7.821-3.502-7.821-7.821v-19.787c0-4.319,3.501-7.821,7.821-7.821 c4.32,0,7.821,3.502,7.821,7.821v19.787C164.941,445.529,161.441,449.03,157.12,449.03z"/>
  </svg>

  <svg id="apartment" viewBox="-35 0 512 512.00001">
    <path d="m377.789062 490.660156h-149.382812v-388.460937h163.386719v324.605469l-14.003907 21.339843zm0 0" fill="#eb8d00"/>
    <path d="m254.238281 42.710938h-25.832031l-21.339844 170.609374 21.34375 272.292969 25.828125-3.625zm0 0" fill="#fdae02"/>
    <path d="m24.359375 0v42.710938h-24.359375v439.277343l137.710938 16.347657 90.699218-12.722657v-485.613281zm0 0" fill="#fdcb02"/>
    <g fill="#f3fffb">
      <path d="m74.691406 102.535156h30.007813v42.679688h-30.007813zm0 0"/>
      <path d="m149.382812 102.535156h30.007813v42.679688h-30.007813zm0 0"/>
      <path d="m74.691406 187.894531h30.007813v42.679688h-30.007813zm0 0"/>
      <path d="m149.382812 187.894531h30.007813v42.679688h-30.007813zm0 0"/>
      <path d="m74.691406 273.257812h30.007813v42.679688h-30.007813zm0 0"/>
      <path d="m149.382812 273.257812h30.007813v42.679688h-30.007813zm0 0"/>
      <path d="m74.691406 358.617188h30.007813v42.679687h-30.007813zm0 0"/>
      <path d="m149.382812 358.617188h30.007813v42.679687h-30.007813zm0 0"/>
    </g>
    <path d="m292.761719 187.894531h30.007812v42.679688h-30.007812zm0 0" fill="#ffd27b"/>
    <path d="m292.761719 273.257812h30.007812v42.679688h-30.007812zm0 0" fill="#ffd27b"/>
    <path d="m361.871094 421.636719h30.011718v74.691406h-30.011718zm0 0" fill="#8f4d24"/>
    <path d="m376.878906 457.316406c-36.128906 0-65.523437-29.394531-65.523437-65.523437 0-36.128907 29.394531-65.519531 65.523437-65.519531s65.519532 29.390624 65.519532 65.519531c0 36.128906-29.390626 65.523437-65.519532 65.523437zm0 0" fill="#a8d32a"/>
    <path d="m441.8125 481.988281h-213.40625l-10.667969 19.507813 10.667969 10.503906h213.40625zm0 0" fill="#8d9ca8"/>
    <path d="m0 481.988281h228.40625v30.011719h-228.40625zm0 0" fill="#aab8c7"/>
  </svg>

</svg>
